<svg class="animated" id="freepik_stories-data-trends" xmlns="http://www.w3.org/2000/svg" viewBox="0 0 750 500" version="1.1" xmlns:xlink="http://www.w3.org/1999/xlink" xmlns:svgjs="http://svgjs.com/svgjs"><style>svg#freepik_stories-data-trends:not(.animated) .animable {opacity: 0;}svg#freepik_stories-data-trends.animated #freepik--background-complete--inject-10 {animation: 1s 1 forwards cubic-bezier(.36,-0.01,.5,1.38) slideLeft,3s Infinite  linear heartbeat;animation-delay: 0s,1s;}svg#freepik_stories-data-trends.animated #freepik--Arrow--inject-10 {animation: 3s Infinite  linear floating;animation-delay: 0s;}svg#freepik_stories-data-trends.animated #freepik--Character--inject-10 {animation: 6s Infinite  linear shake;animation-delay: 0s;}svg#freepik_stories-data-trends.animated #freepik--Chart--inject-10 {animation: 1.0s 1 forwards ease-out lightSpeedLeft;animation-delay: 0s;}            @keyframes slideLeft {                0% {                    opacity: 0;                    transform: translateX(-30px);                }                100% {                    opacity: 1;                    transform: translateX(0);                }            }                    @keyframes heartbeat {                0% {                    transform: scale(1);                }                10% {                    transform: scale(1.1);                }                30% {                    transform: scale(1);                }                40% {                    transform: scale(1);                }                50% {                    transform: scale(1.1);                }                60% {                    transform: scale(1);                }                100% {                    transform: scale(1);                }            }                    @keyframes floating {                0% {                    opacity: 1;                    transform: translateY(0px);                }                50% {                    transform: translateY(-10px);                }                100% {                    opacity: 1;                    transform: translateY(0px);                }            }                    @keyframes shake {                10%, 90% {                    transform: translate3d(-1px, 0, 0);                  }                  20%, 80% {                    transform: translate3d(2px, 0, 0);                  }                  30%, 50%, 70% {                    transform: translate3d(-4px, 0, 0);                  }                  40%, 60% {                    transform: translate3d(4px, 0, 0);                  }            }                    @keyframes lightSpeedLeft {              from {                transform: translate3d(-50%, 0, 0) skewX(20deg);                opacity: 0;              }              60% {                transform: skewX(-10deg);                opacity: 1;              }              80% {                transform: skewX(2deg);              }              to {                opacity: 1;                transform: translate3d(0, 0, 0);              }            }        </style><g id="freepik--background-complete--inject-10" class="animable animator-active" style="transform-origin: 395.914px 261.191px;"><path d="M548.76,167.47c-10.61-4-22.8,7.09-33.2,2.56-6-2.64-8.79-9.48-11.75-15.38s-8.07-12.11-14.63-11.43-12,8.36-18.37,6.51c-4-1.16-6-5.63-7.05-9.71s-1.71-8.57-4.79-11.42-9.47-2.09-10,2.07v50.18H568.59S552.43,168.86,548.76,167.47Z" style="fill: rgb(235, 235, 235); transform-origin: 508.78px 153.875px;" id="elfiuudlz5ko6" class="animable"></path><path d="M637.45,461.36c-21.59-9.83-30.51-33.83-33.88-56.26-.56-3.75-1.69-7.59-.52-11.19s4.88-6.58,8.5-5.63c3,.79,4.8,3.78,6.84,6.15a22.18,22.18,0,0,0,10.27,6.73c2.6.79,5.67,1,7.77-.72,2.88-2.37,2.44-6.87,1.73-10.57q-2-10.33-3.95-20.67c-.71-3.69-1.42-7.47-.92-11.2s2.45-7.46,5.79-9.09,8.06-.41,9.48,3.07a34.91,34.91,0,0,1,1,4.59c.39,1.52,1.42,3.09,3,3.24s2.84-1.16,3.75-2.45c3.13-4.44,4.83-9.73,6.37-15s3-10.57,5.69-15.28,6.92-8.84,12.16-10.12,11.5.95,13.8,5.91.24,10.82-2.29,15.66a84.25,84.25,0,0,1-14.17,19.57c-1,1.05-2.12,2.18-2.31,3.63-.35,2.62,2.44,4.63,5,5,2.93.4,5.87-.43,8.82-.63s6.31.5,7.9,3c2.22,3.5-.21,8-2.85,11.22a71.69,71.69,0,0,1-18.71,16c-2.53,1.5-5.24,2.91-7.08,5.23s-2.55,5.89-.74,8.25,5.36,2.57,8.12,1.51,5-3.07,7.55-4.6c4.73-2.86,11.36-3.73,15.43.07,2.68,2.49,3.61,6.48,3.16,10.13a27.33,27.33,0,0,1-3.92,10.18c-6.38,11.07-15.4,20.7-26.44,27s-21.77,9.4-34.29,7.28" style="fill: rgb(235, 235, 235); transform-origin: 652.404px 389.319px;" id="elszurqawr34p" class="animable"></path><path d="M640.62,446.32a338.42,338.42,0,0,1,6.57-38.14q1.13-5,2.23-9.91c.75-3.25,1.48-6.47,2.39-9.58a166.83,166.83,0,0,1,6.28-17.56c2.26-5.49,4.61-10.62,6.84-15.39s4.42-9.19,6.57-13.12A133.53,133.53,0,0,1,683,324.82c1.52-2,2.75-3.49,3.59-4.5l1-1.14a3.44,3.44,0,0,1,.35-.37,2.64,2.64,0,0,1-.29.42l-.92,1.18c-.81,1-2,2.57-3.49,4.57a141.86,141.86,0,0,0-11.32,17.88c-2.12,3.93-4.26,8.35-6.48,13.13s-4.53,9.91-6.78,15.39a173.79,173.79,0,0,0-6.21,17.5c-.9,3.1-1.62,6.29-2.36,9.55s-1.48,6.56-2.23,9.91a343.34,343.34,0,0,0-6.61,38.05" style="fill: rgb(224, 224, 224); transform-origin: 664.28px 382.6px;" id="ela00d7uapjlg" class="animable"></path><path d="M652,388.63a8.83,8.83,0,0,1-.65-1.51c-.38-1-.89-2.44-1.49-4.23-1.21-3.59-2.7-8.6-4.33-14.13s-3.18-10.52-4.44-14.08c-.62-1.78-1.14-3.22-1.51-4.2a6.78,6.78,0,0,1-.5-1.57,8.3,8.3,0,0,1,.75,1.46c.45,1,1,2.38,1.72,4.14,1.38,3.53,3,8.51,4.65,14.05l4.13,14.18c.5,1.7.93,3.14,1.28,4.29A7.33,7.33,0,0,1,652,388.63Z" style="fill: rgb(224, 224, 224); transform-origin: 645.54px 368.77px;" id="elfqu2xuaxmeg" class="animable"></path><path d="M697.94,370.94a10.21,10.21,0,0,1-1.85.58c-1.2.33-2.94.81-5.07,1.46-4.27,1.28-10.11,3.25-16.46,5.7s-12,4.94-16,6.85c-2,.94-3.64,1.75-4.76,2.3a10.79,10.79,0,0,1-1.78.8,10.25,10.25,0,0,1,1.65-1c1.09-.63,2.67-1.5,4.67-2.5,4-2,9.63-4.59,16-7.06a169.27,169.27,0,0,1,16.57-5.52c2.16-.6,3.92-1,5.15-1.26A10.41,10.41,0,0,1,697.94,370.94Z" style="fill: rgb(224, 224, 224); transform-origin: 674.98px 379.785px;" id="eljtrlglidwvj" class="animable"></path><path d="M641.05,445.33s-.17-.16-.44-.52l-1.13-1.57c-1-1.37-2.34-3.38-4-5.9-3.3-5-7.64-12.11-12.33-20s-9-15-12.16-20.09c-1.56-2.47-2.84-4.51-3.8-6l-1-1.64a2.54,2.54,0,0,1-.32-.6,2.29,2.29,0,0,1,.43.52c.31.42.68.94,1.13,1.57,1,1.37,2.34,3.38,4,5.9,3.31,5,7.65,12.11,12.34,20s9,15,12.15,20.1c1.57,2.47,2.85,4.5,3.8,6l1,1.64A2.54,2.54,0,0,1,641.05,445.33Z" style="fill: rgb(224, 224, 224); transform-origin: 623.46px 417.17px;" id="elhbookszbnh9" class="animable"></path><path d="M700.51,413.27a2.61,2.61,0,0,1-.58.37l-1.72,1-6.37,3.45c-5.37,2.91-12.75,7-20.89,11.56s-15.57,8.59-21,11.39c-2.71,1.4-4.93,2.51-6.47,3.25l-1.78.84c-.41.18-.63.27-.64.24a2.61,2.61,0,0,1,.58-.37l1.72-1,6.36-3.44c5.38-2.91,12.76-7,20.9-11.57s15.57-8.58,21-11.38c2.71-1.41,4.92-2.52,6.47-3.25l1.78-.84A2.4,2.4,0,0,1,700.51,413.27Z" style="fill: rgb(224, 224, 224); transform-origin: 670.785px 429.323px;" id="el3cz2lu5nlm6" class="animable"></path><rect x="89.56" y="151.93" width="18.37" height="73.37" style="fill: rgb(224, 224, 224); transform-origin: 98.745px 188.615px;" id="eldfd1s9f6uv" class="animable"></rect><rect x="116.58" y="167.93" width="18.37" height="57.37" style="fill: rgb(224, 224, 224); transform-origin: 125.765px 196.615px;" id="el1cq69ym8u9u" class="animable"></rect><rect x="144" y="181.04" width="18.37" height="44.26" style="fill: rgb(224, 224, 224); transform-origin: 153.185px 203.17px;" id="elgylydqzdmdl" class="animable"></rect><rect x="169.39" y="199.02" width="18.37" height="26.29" style="fill: rgb(224, 224, 224); transform-origin: 178.575px 212.165px;" id="elvxdme5nlwvq" class="animable"></rect><path d="M334.75,240.86a32.07,32.07,0,1,1,32.58,31.7A32.19,32.19,0,0,1,334.75,240.86Zm47.4-.76a15.34,15.34,0,1,0-15.08,15.65A15.38,15.38,0,0,0,382.15,240.1Z" style="fill: rgb(245, 245, 245); transform-origin: 366.818px 240.493px;" id="elpekpwbq67vj" class="animable"></path><path d="M334.75,240.86a32.18,32.18,0,0,1,31.55-32.73l.27,16.81a15.41,15.41,0,0,0,.5,30.81l.26,16.81A32.17,32.17,0,0,1,334.75,240.86Z" style="fill: rgb(224, 224, 224); transform-origin: 351.038px 240.346px;" id="ellvejbvof8y8" class="animable"></path><path d="M363.42,205.54A36.65,36.65,0,0,1,401,242.05l-19.58.31c-.16-9.94-7.72-16.19-17.61-16Z" style="fill: rgb(235, 235, 235); transform-origin: 382.21px 223.944px;" id="el9miadu8uzsw" class="animable"></path><path d="M317.3,86.58h2.17L324.2,80V75.67s3.35-.21,2.95,5.45,0,4.22,0,4.22,7.11,0,7.71.65c.43.45.62,7.51.69,11.34a4.15,4.15,0,0,1-2.93,4.18,3.46,3.46,0,0,1-.77.1c-1.77,0-10.83-1.44-10.83-1.44H317.3Z" style="fill: rgb(224, 224, 224); transform-origin: 326.428px 88.6395px;" id="elya4s79auymk" class="animable"></path><polygon points="311.1 85.39 312.44 100.21 316.15 100.21 316.15 85.69 311.1 85.39" style="fill: rgb(224, 224, 224); transform-origin: 313.625px 92.8px;" id="el2ls40ejw7or" class="animable"></polygon><path d="M323.35,60.37a2,2,0,0,1,.53,0l1.56,0c.34,0,.73,0,1.15.05l1.38.19,1.61.24,1.79.44a29,29,0,0,1,8.71,3.8,31.16,31.16,0,0,1,9,8.77,31.59,31.59,0,0,1,5.11,14.32,32.86,32.86,0,0,1,.08,4.22c0,.71,0,1.43-.14,2.15l-.33,2.17a30.84,30.84,0,0,1-2.92,8.57,33.07,33.07,0,0,1-5.6,7.7,32.45,32.45,0,0,1-8.06,5.79,29.46,29.46,0,0,1-9.83,3,19,19,0,0,1-2.62.22,23.4,23.4,0,0,1-2.65,0,32,32,0,0,1-5.31-.67A31.2,31.2,0,0,1,306.25,117l.32,0-10.76,4.32-.64.26.19-.66q1.62-5.93,3.16-11.51l.05.28a30.86,30.86,0,0,1-5.74-13.14,28.07,28.07,0,0,1-.42-6.74,21.68,21.68,0,0,1,.31-3.24L293,85c.1-.52.26-1,.38-1.53a30.76,30.76,0,0,1,12-17.5,29.52,29.52,0,0,1,7.14-3.77l1.61-.58,1.53-.39,1.4-.34c.45-.09.88-.13,1.29-.2.81-.1,1.52-.24,2.15-.27l1.58-.06,1,0a1.19,1.19,0,0,1,.33,0l-.33,0-1,.08-1.57.1c-.63,0-1.33.21-2.14.33a30.59,30.59,0,0,0-24.47,22.7c-.12.5-.27,1-.37,1.5s-.15,1-.23,1.55a20.64,20.64,0,0,0-.28,3.17,27.5,27.5,0,0,0,.43,6.61,30.39,30.39,0,0,0,5.67,12.86l.1.13-.05.15q-1.51,5.58-3.14,11.52l-.45-.41,10.76-4.33.16-.07.16.1a30.43,30.43,0,0,0,15.52,5,22.39,22.39,0,0,0,2.59-.05,19.79,19.79,0,0,0,2.56-.21,28.67,28.67,0,0,0,9.61-2.94,31.71,31.71,0,0,0,7.9-5.65,32.51,32.51,0,0,0,5.5-7.53,30.44,30.44,0,0,0,2.89-8.38q.17-1.08.33-2.13c.1-.7.09-1.41.14-2.11a29.86,29.86,0,0,0-5-18.24,31.16,31.16,0,0,0-8.81-8.71,29.42,29.42,0,0,0-8.57-3.87l-1.77-.47-1.59-.26-1.37-.22c-.42-.05-.8-.06-1.14-.09l-1.55-.11A3.69,3.69,0,0,1,323.35,60.37Z" style="fill: rgb(224, 224, 224); transform-origin: 323.333px 91.193px;" id="elb1fbgr8t2pk" class="animable"></path></g><g id="freepik--Arrow--inject-10" class="animable" style="transform-origin: 352.03px 253.215px;"><path d="M45.94,463.19c143.26-36.39,411-157.53,518.62-330.14l-47.37-15.52L645.82,43.24l12.3,125.47L608,153.93S430,417.13,175.59,463Z" style="fill: rgb(0, 255, 136); transform-origin: 352.03px 253.215px;" id="el27xw494nfhn" class="animable"></path><g id="ell8b0z5vdjfn"><g style="opacity: 0.8; transform-origin: 352.03px 253.215px;" class="animable"><path d="M45.94,463.19c143.26-36.39,411-157.53,518.62-330.14l-47.37-15.52L645.82,43.24l12.3,125.47L608,153.93S430,417.13,175.59,463Z" style="fill: rgb(255, 255, 255); transform-origin: 352.03px 253.215px;" id="el6jp32gh8n9x" class="animable"></path></g></g></g><g id="freepik--Character--inject-10" class="animable" style="transform-origin: 241.68px 249.674px;"><path d="M163.44,323.42a5.59,5.59,0,0,1-.64.47l-1.88,1.28c-.81.55-1.82,1.22-3,2s-2.52,1.62-4,2.51c-3,1.84-6.66,3.91-10.78,6.1s-8.74,4.43-13.66,6.61-9.71,4.06-14.09,5.66-8.38,2.88-11.77,3.88c-1.68.52-3.23.92-4.58,1.3s-2.51.68-3.47.91l-2.21.53a5.07,5.07,0,0,1-.78.15,5.08,5.08,0,0,1,.75-.25l2.19-.62c1-.26,2.11-.58,3.45-1s2.87-.83,4.55-1.38c3.36-1,7.34-2.37,11.71-4s9.13-3.51,14-5.68,9.51-4.43,13.65-6.56,7.79-4.2,10.82-6c1.53-.87,2.88-1.72,4.08-2.44s2.22-1.36,3.05-1.89l1.93-1.19A4.15,4.15,0,0,1,163.44,323.42Z" style="fill: rgb(38, 50, 56); transform-origin: 128.01px 339.12px;" id="elt60bir1tq" class="animable"></path><path d="M181.91,298.51a4.08,4.08,0,0,1-.59.52l-1.75,1.4c-1.52,1.22-3.77,2.92-6.58,5a257.43,257.43,0,0,1-22.85,14.77,255.11,255.11,0,0,1-24.3,12.25c-3.2,1.39-5.8,2.46-7.62,3.16l-2.09.8a5.58,5.58,0,0,1-.75.25,3.93,3.93,0,0,1,.71-.34l2.06-.89c1.79-.75,4.37-1.88,7.54-3.31,6.34-2.86,15-7.08,24.2-12.36s17.22-10.6,22.89-14.62c2.84-2,5.11-3.67,6.67-4.84l1.81-1.32A4.86,4.86,0,0,1,181.91,298.51Z" style="fill: rgb(38, 50, 56); transform-origin: 148.645px 317.585px;" id="elz1q0wyotolm" class="animable"></path><path d="M170.35,149.75a12.22,12.22,0,0,1,9.83-10.42c3.7-.62,7.93.4,10.9-1.88,3.28-2.52,3.17-7.77,6.19-10.59,3.47-3.22,9.58-2,13-5.3,2.54-2.49,2.61-6.69,5-9.32s6.74-3,9.74-5.21c3.33-2.43,5.13-7.17,9.17-8a7.48,7.48,0,0,1,6.39,2.27,22.32,22.32,0,0,1,3.91,5.83l13.12,25a5.44,5.44,0,0,1,.78,2.2c.12,2.17-2.14,3.57-4,4.75a24.24,24.24,0,0,0-9.73,12.5c-1.08,3.19-1.83,7-4.87,8.5-2.36,1.13-5.39.34-7.55,1.8-3.12,2.1-2.16,6.93-3.69,10.37-1.42,3.21-5,5-8.38,5.73s-7,.9-10.3,2.12-6.38,4-6.47,7.52a67.7,67.7,0,0,1-13.87-15.52l5.9-5.29-8.9,3c-.59-2.06-2.4-3.48-3.8-5.09s-2.45-4-1.28-5.83c1.42-2.15,5.2-2,6.11-4.42a15.82,15.82,0,0,0-9.85,3.35c-3.12-2.22-6.26-4.43-7.33-8.11" style="fill: rgb(38, 50, 56); transform-origin: 214.367px 143.294px;" id="elmftnjuraabs" class="animable"></path><path d="M169.8,126a6.6,6.6,0,0,1,.6.49c.38.32.94.8,1.71,1.36a10.48,10.48,0,0,0,3,1.6,4.8,4.8,0,0,0,4.26-.58c1.4-.93,2.41-2.54,3.86-4a7,7,0,0,1,2.69-1.69,10.19,10.19,0,0,1,3.32-.48c2.29,0,4.64.46,7.05.31a11.46,11.46,0,0,0,6.75-2.79,11,11,0,0,0,2.4-2.89c.64-1.07,1.14-2.21,1.72-3.31a11.73,11.73,0,0,1,2.06-3,6.55,6.55,0,0,1,3.08-1.75c2.27-.57,4.45-.3,6.43-.44a7.38,7.38,0,0,0,5-1.82,24.06,24.06,0,0,0,2.78-3.62,10.22,10.22,0,0,1,2.41-2.54,4.9,4.9,0,0,1,2-.86,2.83,2.83,0,0,1,.77,0,5,5,0,0,0-2.69,1,10.2,10.2,0,0,0-2.3,2.54,22.7,22.7,0,0,1-2.77,3.72,6.29,6.29,0,0,1-2.32,1.44,11,11,0,0,1-2.9.54c-2,.15-4.19-.09-6.33.47a6,6,0,0,0-2.85,1.64,11.41,11.41,0,0,0-2,2.93c-.56,1.08-1.07,2.23-1.72,3.34a12,12,0,0,1-9.56,5.92c-2.5.14-4.86-.35-7.08-.35a10,10,0,0,0-3.18.44,6.66,6.66,0,0,0-2.54,1.58c-1.41,1.36-2.46,3-3.95,4a5,5,0,0,1-2.35.84,5.62,5.62,0,0,1-2.2-.28,10.41,10.41,0,0,1-3-1.71,19.19,19.19,0,0,1-1.66-1.45A4.32,4.32,0,0,1,169.8,126Z" style="fill: rgb(38, 50, 56); transform-origin: 200.745px 115.009px;" id="eln0iitezble" class="animable"></path><path d="M180.39,224.14s-16.46,17.19-14.17,36.56c0,0,29.69,12.71,30.88,13.07s13.45-4.34,13.45-4.34l31.19-35.36-5.41-5.9Z" style="fill: rgb(38, 50, 56); transform-origin: 203.871px 248.965px;" id="elmvk1c8kbyk" class="animable"></path><path d="M198.65,226.19a4.53,4.53,0,0,1-.4,1.1,19.49,19.49,0,0,1-1.55,2.77,16.65,16.65,0,0,1-3.16,3.53,13.68,13.68,0,0,1-5.14,2.69,10.67,10.67,0,0,1-5.8,0,14.78,14.78,0,0,1-4.25-2.1A10.08,10.08,0,0,1,176,232a5.62,5.62,0,0,1-.45-.74c-.09-.18-.12-.27-.11-.28a11.53,11.53,0,0,0,3.08,2.93,15.12,15.12,0,0,0,4.17,1.94,10.33,10.33,0,0,0,5.54-.05,13.54,13.54,0,0,0,5-2.56,17.35,17.35,0,0,0,3.16-3.37C197.94,227.7,198.56,226.15,198.65,226.19Z" style="fill: rgb(69, 90, 100); transform-origin: 187.044px 231.435px;" id="ely1lfoe3d4c" class="animable"></path><path d="M240.27,232.27s0,.28-.22.71a5.11,5.11,0,0,1-1.26,1.57,5.82,5.82,0,0,1-2.74,1.26,6.3,6.3,0,0,1-3.64-.55,7.17,7.17,0,0,1-2.82-2.35,8.3,8.3,0,0,1-1.25-2.73,8.52,8.52,0,0,1-.25-2,1.74,1.74,0,0,1,.08-.73,25,25,0,0,0,.52,2.63,8.37,8.37,0,0,0,1.27,2.54,7.14,7.14,0,0,0,2.66,2.18,6.14,6.14,0,0,0,3.36.54,5.59,5.59,0,0,0,2.58-1.08A7.15,7.15,0,0,0,240.27,232.27Z" style="fill: rgb(69, 90, 100); transform-origin: 234.175px 231.664px;" id="eltf1wjrco86" class="animable"></path><path d="M193.68,243.65a12.81,12.81,0,0,1,2.49,1,31.1,31.1,0,0,1,5.59,3.35,16,16,0,0,1,4.3,4.9,9.91,9.91,0,0,1,.78,1.83,1.84,1.84,0,0,1,.15.72c-.08,0-.38-1-1.24-2.37a17.87,17.87,0,0,0-4.3-4.68A41.52,41.52,0,0,0,196,245,17.29,17.29,0,0,1,193.68,243.65Z" style="fill: rgb(69, 90, 100); transform-origin: 200.335px 249.55px;" id="eli2ao316rlgn" class="animable"></path><path d="M198.38,252.77c0,.09-1.68-.53-4.45-1.11A36.57,36.57,0,0,0,189,251a36.89,36.89,0,0,0-12,1.17,36.53,36.53,0,0,0-4.68,1.61c-2.61,1.1-4.1,2-4.15,1.95a5.27,5.27,0,0,1,1-.7,11,11,0,0,1,1.26-.72c.5-.26,1.06-.58,1.72-.86a33.66,33.66,0,0,1,4.71-1.73,34.4,34.4,0,0,1,12.17-1.19,34.06,34.06,0,0,1,4.95.79c.7.14,1.31.35,1.86.51a12.79,12.79,0,0,1,1.37.46A5.62,5.62,0,0,1,198.38,252.77Z" style="fill: rgb(69, 90, 100); transform-origin: 183.275px 253.074px;" id="elt8av3pvfmam" class="animable"></path><path d="M268,148.94l-9.92.35-4.24,43,2.06,3.55c0-.54,7.52-19.88,12.4-22.53l38,9.74a24.88,24.88,0,0,0,15.16-.89l46.11-17.85-7.79-12.88L313.5,162.26l-40.86-12.7A14.17,14.17,0,0,0,268,148.94Z" style="fill: rgb(255, 190, 157); transform-origin: 310.705px 172.386px;" id="elwup8x1ohyj" class="animable"></path><path d="M279,168.23a53.38,53.38,0,0,0-7.47,3.31A53.78,53.78,0,0,0,265,176.4a8.34,8.34,0,0,1,1.62-1.8,25.65,25.65,0,0,1,4.69-3.49,26.3,26.3,0,0,1,5.36-2.37A8.67,8.67,0,0,1,279,168.23Z" style="fill: rgb(235, 153, 110); transform-origin: 272px 172.315px;" id="elttpp9mnhte" class="animable"></path><path d="M314.56,167.87a7.45,7.45,0,0,1,.59,2.64,7.35,7.35,0,0,1,.08,2.69,14.14,14.14,0,0,1-.67-5.33Z" style="fill: rgb(235, 153, 110); transform-origin: 314.923px 170.535px;" id="el9rogydf7za" class="animable"></path><path d="M359.76,151.41,367.28,137s2-1.45,2.3,1.75c.37,3.81-.81,6.68,0,7.34,1.18,1,13.56-4.56,15.59-4.78s1.71,1.19.89,1.91-10.53,4.56-10.28,6.06,10-3.28,11.85-3.56a2.25,2.25,0,0,1,2.46,1.33l.68,2.41c.41,1.45-12.92,9-12.92,9s10.08-2.49,10.86-2.19.55.71.5,1.77l-21.62,6.25" style="fill: rgb(255, 190, 157); transform-origin: 375.27px 150.481px;" id="elmay9wrtlqsr" class="animable"></path><path d="M389.76,147.08a7.69,7.69,0,0,1-1.65,1.38,39.42,39.42,0,0,1-9.14,4.82,8,8,0,0,1-2.07.59c0-.14,3-1.26,6.56-3.15S389.67,147,389.76,147.08Z" style="fill: rgb(235, 153, 110); transform-origin: 383.33px 150.474px;" id="el1bocsy2649q" class="animable"></path><path d="M371.87,157a8.83,8.83,0,0,0-.27-1.71,4.11,4.11,0,0,0-2.78-2.69l-.21-.05-.31-.07.13-.28a8.69,8.69,0,0,0,.69-3.91c-.05-1-.23-1.66-.15-1.68a3.57,3.57,0,0,1,.5,1.64,7.8,7.8,0,0,1-.58,4.15l-.19-.35.24.06a4.29,4.29,0,0,1,3,3.08A2.47,2.47,0,0,1,371.87,157Z" style="fill: rgb(235, 153, 110); transform-origin: 370.189px 151.805px;" id="eltb9fv092l9" class="animable"></path><path d="M241.74,234.07s29.94-9.17,37.73-10c14.32-1.46,21.31,12.25,20.22,18.44-1.8,10.17-14.08,78.22-14.08,78.22l-20.14,2,7.13-66.65L236.77,270a30.06,30.06,0,0,1-28.89-4h0Z" style="fill: rgb(255, 190, 157); transform-origin: 253.84px 273.346px;" id="elz3oslf9k09" class="animable"></path><path d="M274.71,246.24a29,29,0,0,1-.94,5.39,29.2,29.2,0,0,1-1.43,5.29,30,30,0,0,1,.94-5.4A31,31,0,0,1,274.71,246.24Z" style="fill: rgb(235, 153, 110); transform-origin: 273.525px 251.58px;" id="elbkmx3tngtav" class="animable"></path><path d="M194.37,200.77l7.18-28.94a18.73,18.73,0,0,1,5-8.81h0a26.34,26.34,0,0,1,9-5.85l11.69-4.54,34.14-1.2L254,195.89l-24.74,18.69-15.7,7-21-4.84Z" style="fill: rgb(255, 190, 157); transform-origin: 226.97px 186.505px;" id="elo63onir89rf" class="animable"></path><polygon points="226.34 190.59 260.45 185 255.66 196.69 252.13 202.2 227.92 211.34 226.34 190.59" style="fill: rgb(69, 90, 100); transform-origin: 243.395px 198.17px;" id="el6g62bzpfd9t" class="animable"></polygon><path d="M180.39,224.14s-3.73-3.28-.2-5.72,5.69.12,8.35-4.87,5.69-9.68,5.83-12.78,5.54,25.79,28.29,1.82c7.28-7.67,6.25-20.47,3-30.43a61.66,61.66,0,0,0-7.91-15.91l3.58-1.35,7.12,14.42C234.26,183,232.33,196.57,238,197c2,.15,8.66-2.55,11.35-5.8,6-7.27,9.74-37.4,12-42l3.14-.11s-7.74,37.23-8.34,43.47c-.51,5.42-1.46,13.2-5,17.45s-11.08,9.42-11.08,9.42.93,4.32.21,5.78-3.93,3-3.93,3l-55.94-4" style="fill: rgb(0, 255, 136); transform-origin: 221.581px 188.65px;" id="elqg2gwsrjysd" class="animable"></path><path d="M195.19,197.48s6.58,7.59,6.53,7.21-1.64-14.13-1.64-14.13l-2.4-3.13Z" style="fill: rgb(69, 90, 100); transform-origin: 198.455px 196.067px;" id="elvg40wg0dw5" class="animable"></path><path d="M239.73,205.51a6,6,0,0,1-.58,2,14.89,14.89,0,0,1-6.82,7.36,6.1,6.1,0,0,1-2,.73,18.65,18.65,0,0,0,9.38-10.12Z" style="fill: rgb(38, 50, 56); transform-origin: 235.03px 210.54px;" id="elxhygainvk5k" class="animable"></path><path d="M239.64,218.47a16.44,16.44,0,0,1-7.65.95,24.4,24.4,0,0,1,3.82-.53A23.9,23.9,0,0,1,239.64,218.47Z" style="fill: rgb(38, 50, 56); transform-origin: 235.815px 218.998px;" id="eluh0b3zib64e" class="animable"></path><path d="M238,221.55l-.48.12-1.37.25c-1.19.21-2.93.45-5.09.67a101.27,101.27,0,0,1-16.92.33,102.39,102.39,0,0,1-16.74-2.47c-2.11-.5-3.81-1-5-1.32l-1.33-.42a2.13,2.13,0,0,1-.46-.18,1.55,1.55,0,0,1,.48.08l1.36.33c1.17.3,2.87.71,5,1.16A113.48,113.48,0,0,0,231,222.24c2.15-.18,3.89-.37,5.09-.52l1.39-.15A1.68,1.68,0,0,1,238,221.55Z" style="fill: rgb(38, 50, 56); transform-origin: 214.305px 220.829px;" id="elli0xcnpuke" class="animable"></path><path d="M252.83,184a2.92,2.92,0,0,1-.07.92,6.62,6.62,0,0,1-.2,1.06,13,13,0,0,1-.39,1.38,19.22,19.22,0,0,1-1.53,3.42,24.53,24.53,0,0,1-2.69,3.71,25,25,0,0,1-3.38,3.08,19.48,19.48,0,0,1-3.21,1.92,11.24,11.24,0,0,1-1.32.56,7.2,7.2,0,0,1-1,.34,2.93,2.93,0,0,1-.91.18c0-.09,1.25-.43,3.1-1.4a21.91,21.91,0,0,0,3.09-2,27,27,0,0,0,3.29-3,27.29,27.29,0,0,0,2.66-3.61,21.64,21.64,0,0,0,1.59-3.3C252.57,185.29,252.73,184,252.83,184Z" style="fill: rgb(38, 50, 56); transform-origin: 245.485px 192.285px;" id="elujomk4upn5r" class="animable"></path><path d="M289.59,304.74l-3,23.44s22.82,10.93,22.69,15.32l-45.67-4.19,3.18-36.73Z" style="fill: rgb(69, 90, 100); transform-origin: 286.445px 323.04px;" id="el256zp5e2fo1" class="animable"></path><g id="eleztf7ow1nll"><g style="opacity: 0.6; transform-origin: 272.911px 326.651px;" class="animable"><path d="M272.62,324.91a1.88,1.88,0,0,0-1.49,2,1.81,1.81,0,0,0,2,1.49,2,2,0,0,0,1.56-2.14,1.86,1.86,0,0,0-2.23-1.32" style="fill: rgb(255, 255, 255); transform-origin: 272.911px 326.651px;" id="elzlnq5n5o5uh" class="animable"></path></g></g><g id="el0sgsivk1m8jp"><g style="opacity: 0.6; transform-origin: 286.437px 339.565px;" class="animable"><path d="M263.58,339.31l.32-3.66L307.66,341s1.95,1.07,1.59,2.48Z" style="fill: rgb(255, 255, 255); transform-origin: 286.437px 339.565px;" id="elmcck0p5hlrj" class="animable"></path></g></g><path d="M287.32,328c0,.22-1.15.22-2.32.84s-1.83,1.5-2,1.39.26-1.36,1.68-2.09S287.39,327.82,287.32,328Z" style="fill: rgb(38, 50, 56); transform-origin: 285.144px 328.981px;" id="el7383lnuhln5" class="animable"></path><path d="M291.93,330.44c0,.22-1,.51-1.81,1.39s-1.16,1.85-1.38,1.82-.25-1.31.82-2.37S291.94,330.23,291.93,330.44Z" style="fill: rgb(38, 50, 56); transform-origin: 290.273px 331.989px;" id="el9p1wsvyeuc" class="animable"></path><path d="M294.12,336.42c-.2,0-.41-1.11.27-2.28s1.78-1.56,1.85-1.36-.63.78-1.17,1.75S294.35,336.42,294.12,336.42Z" style="fill: rgb(38, 50, 56); transform-origin: 295.085px 334.575px;" id="elw6168rbvw9" class="animable"></path><path d="M287.41,322.6c-.11.2-1.11-.21-2.37-.24s-2.29.28-2.39.08.92-.91,2.41-.85S287.54,322.44,287.41,322.6Z" style="fill: rgb(38, 50, 56); transform-origin: 285.032px 322.121px;" id="elpfom3hrqi2c" class="animable"></path><path d="M287.93,317.86a4.35,4.35,0,0,1-2.29-.22,11,11,0,0,1-3.57-1.77,2.77,2.77,0,0,1-.64-.61,1,1,0,0,1,0-1.19,1.25,1.25,0,0,1,1-.42,2.73,2.73,0,0,1,.84.2,8.71,8.71,0,0,1,1.38.61,8.12,8.12,0,0,1,2,1.58c1,1.08,1.26,1.95,1.18,2s-.56-.68-1.56-1.59a9.24,9.24,0,0,0-1.94-1.33,9.13,9.13,0,0,0-1.27-.53c-.48-.17-.89-.21-1,0s-.06.11,0,.26a2.34,2.34,0,0,0,.48.44,11.29,11.29,0,0,0,1.14.8,12.6,12.6,0,0,0,2.13,1.05A15.89,15.89,0,0,1,287.93,317.86Z" style="fill: rgb(38, 50, 56); transform-origin: 284.582px 315.845px;" id="elh4rnzapvn3n" class="animable"></path><path d="M287.61,318.15a3.66,3.66,0,0,1-.4-2.26,7.57,7.57,0,0,1,.54-2.48,7.46,7.46,0,0,1,.71-1.33,1.89,1.89,0,0,1,1.57-1,1.06,1.06,0,0,1,.89.72,2.87,2.87,0,0,1,.16.86,4.87,4.87,0,0,1-.14,1.54,5.3,5.3,0,0,1-1.19,2.28c-1,1.1-2,1.28-2,1.2s.75-.48,1.54-1.55a5.18,5.18,0,0,0,.92-2.08,4.86,4.86,0,0,0,.08-1.33c0-.49-.17-.9-.36-.87s-.65.31-.87.68a7.55,7.55,0,0,0-.68,1.19,8.14,8.14,0,0,0-.65,2.24C287.57,317.27,287.74,318.13,287.61,318.15Z" style="fill: rgb(38, 50, 56); transform-origin: 289.132px 314.615px;" id="eloya9cg3qx7l" class="animable"></path><path d="M238.52,97.14a6.86,6.86,0,0,0,4-4.5,11,11,0,0,0-.12-6.16c-.87-3.06-3-6.08-6.2-6.57s-6.24,1.91-7.13,4.94a9.76,9.76,0,0,0,2.23,8.8c2,2.4,2.62,4.57,7.21,3.49" style="fill: rgb(38, 50, 56); transform-origin: 235.851px 88.6356px;" id="elkt8quzxt0i" class="animable"></path><path d="M233.33,100.31c-.79-.28-1.87-2.58-2-3.42a2.27,2.27,0,0,1,1.08-2.12c1.7-1,3.93.55,5.8-.07s2.47-2.86,4.15-3.67a3.46,3.46,0,0,1,4.22,1.32,4.65,4.65,0,0,1,.06,4.61,7.12,7.12,0,0,1-3.59,3.09,15.63,15.63,0,0,1-4.69,1" style="fill: rgb(0, 255, 136); transform-origin: 239.272px 95.9101px;" id="eler6vwyi1tum" class="animable"></path><path d="M235,100c0,.06-.42-.1-.91-.54a4.59,4.59,0,0,1-1.3-2.22,3.17,3.17,0,0,1-.08-1.46,1.72,1.72,0,0,1,.61-1.06c.6-.46,1.11-.26,1.07-.2s-.43,0-.83.46a2.2,2.2,0,0,0-.28,2.14A7.74,7.74,0,0,0,235,100Z" style="fill: rgb(38, 50, 56); transform-origin: 233.83px 97.2186px;" id="el92u83i29jzd" class="animable"></path><path d="M238.46,100.24c-.07,0-.23-.28-.54-.73a13.34,13.34,0,0,1-1.17-1.84,2.63,2.63,0,0,1-.09-2.28c.29-.55.7-.68.72-.62s-.23.28-.39.76a2.58,2.58,0,0,0,.22,1.93c.34.72.79,1.35,1,1.88S238.52,100.22,238.46,100.24Z" style="fill: rgb(38, 50, 56); transform-origin: 237.46px 97.4983px;" id="elbh955rmoexd" class="animable"></path><path d="M241.89,98.7c-.14,0-.15-1.38-.74-2.93a4.69,4.69,0,0,0-1-1.78c-.38-.33-.74-.27-.75-.34s.38-.29.95,0a3.81,3.81,0,0,1,1.25,1.89A4.57,4.57,0,0,1,241.89,98.7Z" style="fill: rgb(38, 50, 56); transform-origin: 240.724px 96.1021px;" id="elp76cddyr1oh" class="animable"></path><path d="M246,97.72a10.38,10.38,0,0,0-1-4.11,5,5,0,0,0-2-2.11,2.16,2.16,0,0,0-1.18-.07c-.07,0,.41-.51,1.29-.27a4.58,4.58,0,0,1,2.3,2.21,6.38,6.38,0,0,1,.83,3A2.31,2.31,0,0,1,246,97.72Z" style="fill: rgb(38, 50, 56); transform-origin: 244.036px 94.4079px;" id="elnekvh5wytv" class="animable"></path><path d="M269.81,107.09c-.66,2.46.55,5,1.85,7.2s2.76,4.5,2.64,7c-.21,4.51-5.29,7.75-5.24,12.26,0,2.42,1.56,4.66,1.45,7.08s-1.76,4.32-3.61,5.76-4,2.53-5.66,4.14-3,3.88-4.45,5.88L255.32,165l-5.87,1.34L251,139.2" style="fill: rgb(38, 50, 56); transform-origin: 261.878px 136.715px;" id="el7qryit7aor7" class="animable"></path><path d="M230.75,103.49c.37-2.27,2.8-3.62,5.07-4s4.66-.28,6.78-1.18c1.88-.79,3.34-2.32,5-3.48a14.19,14.19,0,0,1,22.18,10.92c.19,3.38-1.1,7.08-4.05,8.73-3.43,1.91-7.69.52-11.32-1s-7.75-3.09-11.33-1.48c-2.16,1-3.67,2.93-5.22,4.72s-3.41,3.56-5.75,3.89-5.08-1.55-4.71-3.89" style="fill: rgb(38, 50, 56); transform-origin: 248.582px 106.5px;" id="ell2ppfr0u0e" class="animable"></path><path d="M239.58,105.68a3.84,3.84,0,0,0-4.12,3.19h0l-7.64,51.54c-1.07,6.06,7.55,8.19,14,9.29l.13-.63c6.55,1.11,6.8,1.55,8-4.18,2-9.57,2.67-13.17,2.67-13.11s8.51.2,12.28-10.23c1.87-5.19,3.28-14,4.2-21.28.83-6.54-1.94-15.28-8.5-15.83Z" style="fill: rgb(255, 190, 157); transform-origin: 248.486px 137.097px;" id="el72ozt1kyjlo" class="animable"></path><path d="M265.91,126a1.4,1.4,0,0,1-1.6,1.14,1.34,1.34,0,0,1-1.18-1.52,1.39,1.39,0,0,1,1.59-1.13A1.34,1.34,0,0,1,265.91,126Z" style="fill: rgb(38, 50, 56); transform-origin: 264.519px 125.815px;" id="elsqxmh5xrntd" class="animable"></path><path d="M266.36,124.47c-.2.15-1.1-.83-2.59-1.11s-2.71.26-2.84,0,.17-.39.71-.65a3.92,3.92,0,0,1,2.32-.25,3.7,3.7,0,0,1,2,1.1C266.37,124.05,266.46,124.41,266.36,124.47Z" style="fill: rgb(38, 50, 56); transform-origin: 263.649px 123.436px;" id="el89q7julvuh8" class="animable"></path><path d="M251.05,123.54a1.39,1.39,0,0,1-1.59,1.14,1.35,1.35,0,0,1-1.19-1.52,1.4,1.4,0,0,1,1.6-1.13A1.33,1.33,0,0,1,251.05,123.54Z" style="fill: rgb(38, 50, 56); transform-origin: 249.661px 123.355px;" id="elyykfam09g7m" class="animable"></path><path d="M251.71,122c-.21.14-1.11-.83-2.59-1.11s-2.72.25-2.85,0,.18-.39.72-.64a3.82,3.82,0,0,1,2.32-.26,3.64,3.64,0,0,1,2,1.11C251.71,121.54,251.81,121.89,251.71,122Z" style="fill: rgb(38, 50, 56); transform-origin: 248.993px 120.964px;" id="eltm0gfmlshrf" class="animable"></path><path d="M255,134a10.24,10.24,0,0,1,2.5,0c.38,0,.76,0,.87-.22a2,2,0,0,0,0-1.17l-.57-3.11c-.77-4.41-1.25-8-1.07-8s.95,3.52,1.72,7.93c.18,1.08.35,2.12.52,3.11a2.27,2.27,0,0,1-.09,1.53,1,1,0,0,1-.73.43,2.73,2.73,0,0,1-.66,0A9.66,9.66,0,0,1,255,134Z" style="fill: rgb(38, 50, 56); transform-origin: 257.031px 128.01px;" id="el6515hn3cstf" class="animable"></path><path d="M252.66,151.78a27.91,27.91,0,0,1-13.68-6.6s2.08,8.06,13.05,9.11Z" style="fill: rgb(235, 153, 110); transform-origin: 245.82px 149.735px;" id="elru0uqfbh7w" class="animable"></path><path d="M253.68,137.46a2.72,2.72,0,0,0-2.21-1.45,2.5,2.5,0,0,0-1.86.58,1.58,1.58,0,0,0-.46,1.75,1.83,1.83,0,0,0,1.86.86,5.56,5.56,0,0,0,2.11-.77,1.54,1.54,0,0,0,.51-.35.51.51,0,0,0,.1-.56" style="fill: rgb(235, 153, 110); transform-origin: 251.413px 137.611px;" id="elgvnijhjm61k" class="animable"></path><path d="M250.42,134.19c.25,0-.06,1.65,1.1,3.06s2.92,1.56,2.89,1.78-.45.24-1.18.13a4.15,4.15,0,0,1-2.42-1.4,3.58,3.58,0,0,1-.82-2.55C250.06,134.53,250.32,134.16,250.42,134.19Z" style="fill: rgb(38, 50, 56); transform-origin: 252.196px 136.707px;" id="el66yzfrv6znh" class="animable"></path><path d="M252.87,119.48c-.22.38-1.67-.1-3.45-.22s-3.28.08-3.45-.32c-.07-.2.25-.53.9-.81a6,6,0,0,1,5.25.41C252.71,118.92,253,119.3,252.87,119.48Z" style="fill: rgb(38, 50, 56); transform-origin: 249.431px 118.667px;" id="el1cpsa6uf21m" class="animable"></path><path d="M266.64,120.07c-.33.28-1.28-.26-2.51-.51s-2.32-.21-2.49-.61c-.07-.19.16-.5.67-.73a3.72,3.72,0,0,1,4,.9C266.71,119.55,266.78,119.92,266.64,120.07Z" style="fill: rgb(38, 50, 56); transform-origin: 264.167px 119.063px;" id="el4qezazt8vh4" class="animable"></path><path d="M225.22,139.62a9.73,9.73,0,0,0,13.41-8.36c.17-2.71-.73-5.67.67-8,1.85-3.07,6.68-3.19,8.55-6.25,1.08-1.78.88-4.15,2.05-5.87s3.16-2.28,5.1-2.58,4-.38,5.71-1.27,3.13-2.93,2.47-4.78a104.08,104.08,0,0,0-24.62,1.16c-1.88.32-3.88.75-5.22,2.11s-1.78,3.58-2.07,5.58Q229.14,126,227,140.61" style="fill: rgb(38, 50, 56); transform-origin: 244.283px 121.427px;" id="elvntmgv9juu" class="animable"></path><path d="M217.69,147.44a3.11,3.11,0,0,1,.1-.73,5.61,5.61,0,0,1,.83-1.93A8.85,8.85,0,0,1,221,142.4a14.36,14.36,0,0,1,4-1.89c1.55-.51,3.3-.91,5.11-1.55a11.65,11.65,0,0,0,5.06-3.19,6.17,6.17,0,0,0,1.42-2.87,17.52,17.52,0,0,0,.16-3.42,9.14,9.14,0,0,1,.45-3.6,4.09,4.09,0,0,1,1.09-1.55,5.38,5.38,0,0,1,1.67-.93c1.2-.43,2.44-.57,3.6-.87a5.54,5.54,0,0,0,3-1.64,7.09,7.09,0,0,0,1.38-3.06c.26-1.09.4-2.19.63-3.25a9.4,9.4,0,0,1,1.07-3,5.62,5.62,0,0,1,1-1.19,5.66,5.66,0,0,1,1.25-.83,13.87,13.87,0,0,1,5.28-.93,12.21,12.21,0,0,0,4.29-.73,4.93,4.93,0,0,0,2.4-2.15,3.47,3.47,0,0,0,.43-2c-.07-.48-.19-.71-.16-.72a2.51,2.51,0,0,1,.22.71,3.35,3.35,0,0,1-.38,2.06,4.92,4.92,0,0,1-2.44,2.25,12.4,12.4,0,0,1-4.35.81,13.48,13.48,0,0,0-5.17.94,4.78,4.78,0,0,0-1.18.79,5,5,0,0,0-.92,1.13,9.29,9.29,0,0,0-1,2.92c-.22,1-.36,2.15-.61,3.27a7.44,7.44,0,0,1-1.45,3.19,5.88,5.88,0,0,1-3.17,1.75,35.69,35.69,0,0,0-3.57.86,5.18,5.18,0,0,0-1.56.87,3.79,3.79,0,0,0-1,1.42,8.85,8.85,0,0,0-.44,3.47,17.65,17.65,0,0,1-.17,3.49,6.46,6.46,0,0,1-1.5,3,12,12,0,0,1-5.2,3.26c-1.83.63-3.58,1-5.13,1.51a14.33,14.33,0,0,0-4,1.82,8.74,8.74,0,0,0-2.35,2.3,6.06,6.06,0,0,0-.87,1.88C217.73,147.19,217.71,147.45,217.69,147.44Z" style="fill: rgb(38, 50, 56); transform-origin: 241.035px 125.235px;" id="elikznjai92s" class="animable"></path><path d="M255.94,153.28c-2.16,1.59-1.13,5.52-2.47,7.84-1.74,3-6.48,2.42-9.21,4.62-3.62,2.93-2,9.07-4.75,12.84-1.67,2.32-4.8,3.47-5.91,6.1a5.07,5.07,0,0,0,3.85,6.69l2.14-2.25a3.58,3.58,0,0,0,1.5,3.74,10.56,10.56,0,0,0,4,1.54c1.51-.56,1.93-2.49,1.89-4.1s-.26-3.39.71-4.67c1.17-1.55,3.53-1.65,4.92-3,2.76-2.67,0-7.87,2.26-11,1.44-2,4.28-2.2,6.22-3.66,2.81-2.11,3.11-6.2,2.58-9.67s-1.61-7-.68-10.41" style="fill: rgb(38, 50, 56); transform-origin: 248.595px 171.145px;" id="elw0x5yo30vta" class="animable"></path><path d="M169.1,259.65a29.82,29.82,0,0,1,11-2.3c11.21-.22,21.87-1.21,31.65,10.88l15.65,15.62c5.64,6.21,6.36,16.11,5.06,24.39l-1.61,2.05c-.67,4.26-5.24,8.55-7.74,12l-39.95,52.92-13.37-13.1,33.85-58.45s-26.38-22.18-31.83-29a26.13,26.13,0,0,1-5.58-14Z" style="fill: rgb(255, 190, 157); transform-origin: 199.622px 316.223px;" id="el9atf8ox91vv" class="animable"></path><path d="M208.4,295.48a2.54,2.54,0,0,1-.25.57l-.82,1.58c-.72,1.37-1.79,3.34-3.13,5.76-2.68,4.84-6.48,11.48-10.74,18.77s-8.18,13.85-11.05,18.58L179,346.33l-1,1.51a2.81,2.81,0,0,1-.36.5,2.76,2.76,0,0,1,.27-.55l.88-1.56,3.28-5.67L193,321.9l10.87-18.69c1.36-2.35,2.46-4.28,3.27-5.68l.9-1.53A3.29,3.29,0,0,1,208.4,295.48Z" style="fill: rgb(235, 153, 110); transform-origin: 193.02px 321.91px;" id="el5gwtqjr3xls" class="animable"></path><path d="M184.4,396.09l-2.51-17.83,14.2-19.41-19.2-11.2-8.8,15.3-11.71,10,20.43,30.79,18.64-2S193.62,397.45,184.4,396.09Z" style="fill: rgb(69, 90, 100); transform-origin: 176.235px 375.695px;" id="elyrrgnhpflrs" class="animable"></path><path d="M156.38,373l20.43,30.79,18.64-2a7.77,7.77,0,0,0-2.4-2.57L177.8,400l-18.93-29.14Z" style="fill: rgb(235, 235, 235); transform-origin: 175.915px 387.325px;" id="elaew3wtn7ldj" class="animable"></path><path d="M183.41,387.91c-.12.2-1.26-.29-2.7-.1s-2.43.91-2.59.74.74-1.35,2.49-1.56S183.56,387.74,183.41,387.91Z" style="fill: rgb(38, 50, 56); transform-origin: 180.762px 387.768px;" id="elcjzcgavaw06" class="animable"></path><path d="M182.63,383.5c-.17.15-1.12-.86-2.63-1s-2.64.67-2.78.49.11-.41.6-.75a3.52,3.52,0,0,1,4.36.4C182.6,383.07,182.72,383.44,182.63,383.5Z" style="fill: rgb(38, 50, 56); transform-origin: 179.92px 382.59px;" id="el6jsib8esnpe" class="animable"></path><path d="M182.15,377.78c-.2.13-1-.88-2.29-1.19s-2.47.24-2.59,0,.15-.37.65-.62a3.25,3.25,0,0,1,3.93.93C182.18,377.38,182.24,377.73,182.15,377.78Z" style="fill: rgb(38, 50, 56); transform-origin: 179.715px 376.727px;" id="el7748evtxsh3" class="animable"></path><path d="M186.66,372.83c-.21.1-.85-.9-2.09-1.53s-2.4-.61-2.44-.84,1.32-.68,2.83.11S186.88,372.78,186.66,372.83Z" style="fill: rgb(38, 50, 56); transform-origin: 184.422px 371.48px;" id="elf0voigu0bo5" class="animable"></path><path d="M188.68,368.74c-.08.08-.78-.61-1.83-1.77L185,364.9a6.06,6.06,0,0,1-1-1.42,1.5,1.5,0,0,1,0-1.14,1.17,1.17,0,0,1,1.06-.71,3.42,3.42,0,0,1,1.84.72,6.22,6.22,0,0,1,1.27,1.17,6.44,6.44,0,0,1,1.27,2.58,3.58,3.58,0,0,1-.15,2.59,22.22,22.22,0,0,0-.42-2.43,6.33,6.33,0,0,0-1.28-2.25,5.8,5.8,0,0,0-1.14-1,3,3,0,0,0-1.36-.57c-.19,0-.27.07-.33.21a.69.69,0,0,0,0,.53,6.23,6.23,0,0,0,.86,1.22l1.68,2.19A7.79,7.79,0,0,1,188.68,368.74Z" style="fill: rgb(38, 50, 56); transform-origin: 186.751px 365.188px;" id="elk5jaaxtr9m" class="animable"></path><path d="M189.41,369.23c-.09,0-.12-1,.77-2.22a4.69,4.69,0,0,1,5.42-1.58.89.89,0,0,1,.36.63,1.23,1.23,0,0,1-.16.62,3,3,0,0,1-.61.66,9.17,9.17,0,0,1-1.24.89,8.08,8.08,0,0,1-2.38.95,3.79,3.79,0,0,1-2.32,0c0-.14.87-.16,2.17-.6a9,9,0,0,0,2.13-1,7.73,7.73,0,0,0,1.1-.85,2.61,2.61,0,0,0,.44-.47c.07-.17,0-.12,0-.17a1.59,1.59,0,0,0-.56-.14,4.22,4.22,0,0,0-.71,0,4.67,4.67,0,0,0-1.31.23,4.5,4.5,0,0,0-1.9,1.24C189.73,368.38,189.54,369.27,189.41,369.23Z" style="fill: rgb(38, 50, 56); transform-origin: 192.605px 367.244px;" id="elocv06tz04ca" class="animable"></path><path d="M171.19,370.83a2.23,2.23,0,1,1-2.45-2A2.22,2.22,0,0,1,171.19,370.83Z" style="fill: rgb(235, 235, 235); transform-origin: 168.971px 371.048px;" id="el0psibxsxpnq" class="animable"></path><path d="M212.52,297.64s1.69,24.25,2.71,24.55,1.36.62,1.84-.06.44-11.07.44-11.07,4.21,14.76,5.71,14.7l2.51-.09a2.23,2.23,0,0,0,1.87-2.07c.17-1.85-2.91-13.3-1.4-13.18s3,13.63,4.16,13.42,1.85.43,2.12-1.58-4-17.45-2-18.86,3.83,3.89,7.82,3.08l4-.81-16.54-13Z" style="fill: rgb(255, 190, 157); transform-origin: 227.41px 309.215px;" id="elj9svry7qan" class="animable"></path><path d="M213.51,307.26l-13.58-115.5s-3.58-24.92,9.17-28.57c9.84-2.82,17.06,8.94,17.2,18.1s3.8,119.76,3.8,119.76Z" style="fill: rgb(255, 190, 157); transform-origin: 214.784px 235.012px;" id="elfs0raf74jn" class="animable"></path><path d="M225.94,179.26c.14,0,.63,10.43,1.1,23.3s.74,23.32.6,23.32-.63-10.43-1.1-23.3S225.8,179.26,225.94,179.26Z" style="fill: rgb(235, 153, 110); transform-origin: 226.79px 202.57px;" id="elxlw4yb7g8oo" class="animable"></path><path d="M199.56,186c.13,0,1.33,9.32,2.67,20.83s2.31,20.88,2.17,20.9-1.34-9.31-2.68-20.84S199.42,186,199.56,186Z" style="fill: rgb(235, 153, 110); transform-origin: 201.98px 206.865px;" id="el39rg1l4cs3k" class="animable"></path><path d="M206.77,215.18s0-.1.09-.28a2.89,2.89,0,0,1,.43-.68,3.87,3.87,0,0,1,2.49-1.39,3.74,3.74,0,0,1,2,.25,4.35,4.35,0,0,1,1.82,1.49,4.56,4.56,0,0,1,.85,2.56,4.82,4.82,0,0,1-.86,2.76,4,4,0,0,1-2.23,1.64,4,4,0,0,1-2.52-.15,4.28,4.28,0,0,1-2.69-3.37,4.58,4.58,0,0,1,.61-2.94,2.43,2.43,0,0,1,.51-.63c.13-.12.22-.16.23-.15a5,5,0,0,0-.6.87,4.64,4.64,0,0,0-.45,2.8,4,4,0,0,0,2.51,3,3.79,3.79,0,0,0,2.29.1,3.69,3.69,0,0,0,2-1.47,4.36,4.36,0,0,0,.78-2.48,4.16,4.16,0,0,0-.74-2.32,4.06,4.06,0,0,0-1.64-1.39,3.45,3.45,0,0,0-1.81-.28,3.86,3.86,0,0,0-2.4,1.19C207,214.83,206.81,215.2,206.77,215.18Z" style="fill: rgb(38, 50, 56); transform-origin: 210.281px 217.227px;" id="elefr1247xmv" class="animable"></path><path d="M212.7,220.52c-.07,0-.25-.43-.66-1.05a6.36,6.36,0,0,0-2.06-1.94,5.63,5.63,0,0,0-2.65-.72,8.5,8.5,0,0,1-1.18,0c0-.06.42-.27,1.17-.34a5,5,0,0,1,2.86.65,5.54,5.54,0,0,1,2.11,2.17A2.6,2.6,0,0,1,212.7,220.52Z" style="fill: rgb(38, 50, 56); transform-origin: 209.425px 218.488px;" id="elymf0mntb1tc" class="animable"></path><path d="M210.51,217.76a3.16,3.16,0,0,1-.6-2.45,3.1,3.1,0,0,1,1-2.31,15.73,15.73,0,0,0-.56,2.35A17.43,17.43,0,0,0,210.51,217.76Z" style="fill: rgb(38, 50, 56); transform-origin: 210.387px 215.38px;" id="elfcbrr03cw8t" class="animable"></path><path d="M224.2,228.55s.09,0,.25.13a3.48,3.48,0,0,1,.59.53,4.52,4.52,0,0,1,1,2.82,4.35,4.35,0,0,1-2,3.85,3.78,3.78,0,0,1-2.46.62,4.2,4.2,0,0,1-2.46-1.23,4.58,4.58,0,0,1-1.29-2.57,5,5,0,0,1,.4-2.68,4,4,0,0,1,3.39-2.48,3.91,3.91,0,0,1,2.67,1,2.63,2.63,0,0,1,.53.6c.1.16.12.26.11.27a4.78,4.78,0,0,0-.74-.73,3.87,3.87,0,0,0-2.55-.81,3.76,3.76,0,0,0-3.06,2.35,4.47,4.47,0,0,0-.33,2.42,4,4,0,0,0,1.16,2.31,3.81,3.81,0,0,0,2.21,1.11,3.41,3.41,0,0,0,2.22-.53,4,4,0,0,0,1.46-1.59,4.15,4.15,0,0,0,.44-1.9,4.53,4.53,0,0,0-.85-2.7A8.85,8.85,0,0,0,224.2,228.55Z" style="fill: rgb(38, 50, 56); transform-origin: 221.917px 232.028px;" id="el7389t4as0b2" class="animable"></path><path d="M218.65,234.28c0-.07.41-.21,1-.59a6,6,0,0,0,2-2,6.57,6.57,0,0,0,.94-2.75,8.35,8.35,0,0,1,.12-1.25,2.43,2.43,0,0,1,.18,1.28,5.94,5.94,0,0,1-.88,3,5.38,5.38,0,0,1-2.23,2A2.06,2.06,0,0,1,218.65,234.28Z" style="fill: rgb(38, 50, 56); transform-origin: 220.78px 230.985px;" id="elbmuqsjau6td" class="animable"></path><path d="M221.42,232.26a2.63,2.63,0,0,1,2.34-.37,2.83,2.83,0,0,1,2,1.31,13.84,13.84,0,0,0-2.11-.86A13.36,13.36,0,0,0,221.42,232.26Z" style="fill: rgb(38, 50, 56); transform-origin: 223.59px 232.482px;" id="elejzz0vd5vyv" class="animable"></path><path d="M212.47,229.43a1.29,1.29,0,0,1-.78-.16,3.18,3.18,0,0,1-1.54-1.63,3.51,3.51,0,0,1,.28-3.38A3.06,3.06,0,0,1,212,223a3.13,3.13,0,0,1,2.09,0,3.3,3.3,0,0,1,1.65,1.39,3.79,3.79,0,0,1,.5,2,3.35,3.35,0,0,1-1.67,2.89,3,3,0,0,1-2.16.18c-.5-.16-.7-.4-.69-.42a6,6,0,0,0,.73.25,3,3,0,0,0,2-.3,3,3,0,0,0,1.42-2.61,3.41,3.41,0,0,0-.45-1.77,2.88,2.88,0,0,0-1.44-1.2,2.62,2.62,0,0,0-3.18,1,3.21,3.21,0,0,0-.33,3,3.27,3.27,0,0,0,1.34,1.6C212.19,229.36,212.47,229.39,212.47,229.43Z" style="fill: rgb(38, 50, 56); transform-origin: 213.042px 226.201px;" id="elbrwdazyuex" class="animable"></path><path d="M214.67,223.61a7.54,7.54,0,0,0-1.32,2.8,7.77,7.77,0,0,0,.36,3.13s-.29-.25-.53-.82a4.63,4.63,0,0,1-.25-2.39,4.31,4.31,0,0,1,1-2.15C214.32,223.73,214.64,223.57,214.67,223.61Z" style="fill: rgb(38, 50, 56); transform-origin: 213.771px 226.572px;" id="el53zqk5zlxfi" class="animable"></path><path d="M213.33,225.94c.09.07-.46.84-1.5,1.08a1.9,1.9,0,0,1-1.8-.29c0-.13.8.07,1.7-.16S213.25,225.84,213.33,225.94Z" style="fill: rgb(38, 50, 56); transform-origin: 211.685px 226.528px;" id="elqibsxdgatas" class="animable"></path><path d="M213.63,219.22s.24,0,.64.07a3.25,3.25,0,0,0,1.66-.34,3.75,3.75,0,0,0,1.74-1.83,5.07,5.07,0,0,0,.18-3.22,5.85,5.85,0,0,0-.47-1.21l.26.1a6.17,6.17,0,0,0-3.15,3.69,14.91,14.91,0,0,0-.4,2.07A1.59,1.59,0,0,1,214,218a5.57,5.57,0,0,1,.21-1.59,6.27,6.27,0,0,1,3.25-4l.16-.08.1.18a5.43,5.43,0,0,1,.52,1.31,5.37,5.37,0,0,1-.24,3.52,3.9,3.9,0,0,1-2,1.95,3.14,3.14,0,0,1-1.8.22A1.29,1.29,0,0,1,213.63,219.22Z" style="fill: rgb(38, 50, 56); transform-origin: 216.03px 215.943px;" id="el1fj11a51et5" class="animable"></path><path d="M217.05,214.83a7.2,7.2,0,0,1-1.44,2.42,6.7,6.7,0,0,1-2,1.93,13,13,0,0,1,1.65-2.23A12,12,0,0,1,217.05,214.83Z" style="fill: rgb(38, 50, 56); transform-origin: 215.33px 217.005px;" id="elowyubuox3m8" class="animable"></path><path d="M211.85,220.92a1.43,1.43,0,0,1-.19.6,4.63,4.63,0,0,1-1,1.36,4.87,4.87,0,0,1-2.07,1.27,4.73,4.73,0,0,1-2.92-.1,5,5,0,0,1-2-1.28l-.12-.13.09-.14a3.92,3.92,0,0,1,3.26-1.83,2.16,2.16,0,0,1,1.41.37A9.4,9.4,0,0,0,207,221a3.81,3.81,0,0,0-2.93,1.79l0-.28a5,5,0,0,0,1.82,1.16,4.54,4.54,0,0,0,2.69.12,4.68,4.68,0,0,0,2-1.1A8.92,8.92,0,0,0,211.85,220.92Z" style="fill: rgb(38, 50, 56); transform-origin: 207.7px 222.498px;" id="el74dso4k7v62" class="animable"></path><path d="M206.37,223.05a5.86,5.86,0,0,1,2.44-1.35,5.44,5.44,0,0,1,2.72-.42,18.64,18.64,0,0,1-2.58.86A18.39,18.39,0,0,1,206.37,223.05Z" style="fill: rgb(38, 50, 56); transform-origin: 208.95px 222.151px;" id="elflnrkvv5wgo" class="animable"></path><path d="M209.13,243s0-.08-.12-.26a4.38,4.38,0,0,1-.19-.82,6,6,0,0,1,.49-3,10.88,10.88,0,0,1,2.67-3.53,29.18,29.18,0,0,0,3.73-3.73,7.34,7.34,0,0,0,1.21-2.42,7.49,7.49,0,0,0,.21-2.56,8.35,8.35,0,0,0-1.52-4.05,10,10,0,0,0-2-2.08,8,8,0,0,1-.85-.65,3.07,3.07,0,0,1,.94.5,8.75,8.75,0,0,1,2.15,2,8.35,8.35,0,0,1,1.68,4.21,7.69,7.69,0,0,1-.2,2.72,7.56,7.56,0,0,1-1.28,2.59,27.93,27.93,0,0,1-3.8,3.76,11,11,0,0,0-2.66,3.35,6.06,6.06,0,0,0-.59,2.88C209,242.58,209.17,243,209.13,243Z" style="fill: rgb(38, 50, 56); transform-origin: 213.183px 231.45px;" id="elvr4jvziybx" class="animable"></path><path d="M216.91,224.94c-.12,0-.31-.48-.82-.82s-1-.35-1-.47.12-.15.36-.18a1.35,1.35,0,0,1,.9.26,1.55,1.55,0,0,1,.59.79C217,224.77,217,224.93,216.91,224.94Z" style="fill: rgb(38, 50, 56); transform-origin: 216.036px 224.203px;" id="elnnzolzb7ebc" class="animable"></path><path d="M221.48,224.33c0,.14-1,.19-2.13.72s-1.86,1.28-1.95,1.18a3.24,3.24,0,0,1,1.77-1.6A2.92,2.92,0,0,1,221.48,224.33Z" style="fill: rgb(38, 50, 56); transform-origin: 219.44px 225.227px;" id="eltp8jge1vycn" class="animable"></path><path d="M217.2,226.64a21.11,21.11,0,0,1,2.3-.42,8.66,8.66,0,0,0,2.36-.8,5.14,5.14,0,0,0,2.16-2.13l.09.31-.08,0a5.46,5.46,0,0,0-3-.53,5.53,5.53,0,0,0-2.36.8,10.9,10.9,0,0,0-1.8,1.58s.08-.24.34-.59a5.65,5.65,0,0,1,3.77-2.21,5.73,5.73,0,0,1,3.19.53l.09.05.2.1-.11.21a5.24,5.24,0,0,1-2.36,2.29,7.84,7.84,0,0,1-2.48.75,15.45,15.45,0,0,1-1.72.14A1.84,1.84,0,0,1,217.2,226.64Z" style="fill: rgb(38, 50, 56); transform-origin: 220.665px 224.664px;" id="eljt1pobau" class="animable"></path><path d="M212.25,234.71a1.35,1.35,0,0,1-.55,0,4.86,4.86,0,0,1-1.45-.38,6,6,0,0,1-3.33-3.89l-.06-.19.18-.08a4.08,4.08,0,0,1,.56-.2,3.91,3.91,0,0,1,3,.38,4.11,4.11,0,0,1,1.7,1.89,4.42,4.42,0,0,1,.41,1.71c0,.41-.05.63-.08.63a6.38,6.38,0,0,0-.6-2.19,3.89,3.89,0,0,0-1.61-1.67,3.71,3.71,0,0,0-2.68-.31,3.25,3.25,0,0,0-.5.18l.12-.27a6,6,0,0,0,3,3.72A12,12,0,0,0,212.25,234.71Z" style="fill: rgb(38, 50, 56); transform-origin: 209.785px 232.283px;" id="eluh3ydrkke98" class="animable"></path><path d="M212.57,234.79c-.06,0-.19-.22-.47-.55a7.23,7.23,0,0,0-1.25-1.11A8.79,8.79,0,0,1,209.5,232c-.31-.35-.42-.63-.38-.67s.24.16.58.43.83.59,1.39,1a4.58,4.58,0,0,1,1.25,1.3C212.58,234.46,212.62,234.78,212.57,234.79Z" style="fill: rgb(38, 50, 56); transform-origin: 210.851px 233.057px;" id="el486gwiy5jaw" class="animable"></path><path d="M219,234.45a3.93,3.93,0,0,1-2.76.55,4,4,0,0,1-2.64-1c.06-.12,1.18.46,2.68.59S219,234.32,219,234.45Z" style="fill: rgb(38, 50, 56); transform-origin: 216.3px 234.52px;" id="el77fpf0oj39t" class="animable"></path><path d="M211.66,236.67s.21,0,.58,0a4.48,4.48,0,0,1,1.48.63,5,5,0,0,1,1.69,1.85,5.71,5.71,0,0,1,.66,3.12v.17l-.16,0a4,4,0,0,1-.7.08,4.34,4.34,0,0,1-3-1.16A4.62,4.62,0,0,1,210.8,239a4.76,4.76,0,0,1-.05-1.9c.09-.43.19-.66.22-.65a6.83,6.83,0,0,0,.12,2.46,4.46,4.46,0,0,0,1.33,2.18,4.06,4.06,0,0,0,2.77,1,3.2,3.2,0,0,0,.63-.07l-.17.21a5.6,5.6,0,0,0-.57-2.88,5.08,5.08,0,0,0-1.51-1.79A8.09,8.09,0,0,0,211.66,236.67Z" style="fill: rgb(38, 50, 56); transform-origin: 213.382px 239.485px;" id="elascjqi98uyi" class="animable"></path><path d="M214.29,241c0,.11-1.17-.58-2-2a4.6,4.6,0,0,1-.8-2.78c.12,0,.38,1.23,1.16,2.54S214.36,240.94,214.29,241Z" style="fill: rgb(38, 50, 56); transform-origin: 212.89px 238.616px;" id="el9yo9j1ayv24" class="animable"></path><path d="M209.18,239.11a1.93,1.93,0,0,1-1.59.12,3,3,0,0,1-1.52-1,3.57,3.57,0,0,1-.83-2.16,1.6,1.6,0,0,1,0-.31v-.2h.19a3.44,3.44,0,0,1,3.26,1.68,2.48,2.48,0,0,1,.46,1.55,10,10,0,0,0-.7-1.37,3.3,3.3,0,0,0-3-1.41l.19-.21v.26a3.33,3.33,0,0,0,.7,1.91,2.93,2.93,0,0,0,1.32.94A5.69,5.69,0,0,0,209.18,239.11Z" style="fill: rgb(38, 50, 56); transform-origin: 207.206px 237.447px;" id="elmc778kpffki" class="animable"></path><path d="M217.53,237s.31-.13.8.08a1.13,1.13,0,0,1,.62.79,1,1,0,0,1-.62,1.09,1,1,0,0,1-1.12-.45,1.12,1.12,0,0,1-.09-1c.24-.55.62-.61.62-.56s-.23.23-.34.66a.87.87,0,0,0,.13.67.55.55,0,0,0,1-.34.84.84,0,0,0-.37-.57C217.83,237.17,217.52,237.12,217.53,237Z" style="fill: rgb(38, 50, 56); transform-origin: 218.003px 237.966px;" id="ellmo8gkbjipq" class="animable"></path><path d="M208.53,235.44c0-.05.14-.19.49-.22a.64.64,0,0,1,.6.32.61.61,0,0,1,.07.51.56.56,0,0,1-.39.36.73.73,0,0,1-.77-.36.85.85,0,0,1-.13-.7.46.46,0,0,1,.34-.32c.11,0,.16,0,.16.06s-.19.11-.21.34a.61.61,0,0,0,.15.36c.1.13.26.22.36.18s.06-.4-.2-.43S208.53,235.51,208.53,235.44Z" style="fill: rgb(38, 50, 56); transform-origin: 209.045px 235.726px;" id="eljiwpklo1ly" class="animable"></path><path d="M207.67,226.61c-.06,0,.14-.31.52-.15a.6.6,0,0,1,.33.65.69.69,0,0,1-.61.61.73.73,0,0,1-.7-.49.74.74,0,0,1,.1-.7c.24-.31.5-.27.49-.21s-.15.15-.24.38a.45.45,0,0,0,0,.36.37.37,0,0,0,.31.21.35.35,0,0,0,.26-.24.27.27,0,0,0-.09-.28C207.88,226.59,207.7,226.66,207.67,226.61Z" style="fill: rgb(38, 50, 56); transform-origin: 207.847px 226.999px;" id="elje8zdeeau9l" class="animable"></path><path d="M217.27,219.85c0,.05-.08.2,0,.46s.26.5.55.31a.38.38,0,0,0,0-.66c-.18-.16-.36-.12-.39-.18s.17-.26.54-.11a.79.79,0,0,1,.43.54.8.8,0,0,1-.36.8.68.68,0,0,1-.84,0,.8.8,0,0,1-.23-.66C217,219.89,217.26,219.79,217.27,219.85Z" style="fill: rgb(38, 50, 56); transform-origin: 217.687px 220.385px;" id="el6b61htmvqbg" class="animable"></path><path d="M224.48,226s.14-.21.46-.11a.62.62,0,0,1,.39.48.69.69,0,0,1-.3.72.57.57,0,0,1-.74-.15.55.55,0,0,1,0-.66c.24-.31.51-.16.47-.11s-.15.1-.21.28a.2.2,0,0,0,.05.21c.06.05.19.08.24,0a.32.32,0,0,0,.12-.27.31.31,0,0,0-.13-.25C224.66,226.06,224.5,226.06,224.48,226Z" style="fill: rgb(38, 50, 56); transform-origin: 224.762px 226.515px;" id="elcvm6a2asqt" class="animable"></path><path d="M214.08,210.61c0,.06-.19.08-.32.28a.34.34,0,0,0,.19.57c.31,0,.42-.23.35-.48s-.23-.3-.22-.37.28-.11.49.23a.8.8,0,0,1,.05.69.67.67,0,0,1-.74.38.71.71,0,0,1-.33-1.25C213.85,210.41,214.11,210.56,214.08,210.61Z" style="fill: rgb(38, 50, 56); transform-origin: 213.982px 211.221px;" id="elzm508w132d" class="animable"></path><path d="M209.78,210.66a13.4,13.4,0,0,0,1.16-1.78,6.25,6.25,0,0,0,.11-5l.29.11-.2.13a4.44,4.44,0,0,0-1.71,2.19,5,5,0,0,0-.24,2.36,8,8,0,0,0,.75,2.11s-.19-.13-.41-.47a4.75,4.75,0,0,1-.63-1.58,4.91,4.91,0,0,1,.16-2.57,4.73,4.73,0,0,1,1.86-2.43l.22-.14.2-.12.1.23a6.33,6.33,0,0,1,.46,3,6,6,0,0,1-.7,2.35,5.27,5.27,0,0,1-1,1.29C210,210.58,209.79,210.68,209.78,210.66Z" style="fill: rgb(38, 50, 56); transform-origin: 210.362px 207.125px;" id="el46jjed551if" class="animable"></path><path d="M210.48,205.64A20.39,20.39,0,0,0,210,208a19.25,19.25,0,0,0,.12,2.37,3.19,3.19,0,0,1-.55-2.42A3.06,3.06,0,0,1,210.48,205.64Z" style="fill: rgb(38, 50, 56); transform-origin: 210px 208.005px;" id="elbwj5ql7tqq" class="animable"></path><path d="M221.54,238.28s.07-.29.46-.53a2.06,2.06,0,0,1,1.83-.06,6.84,6.84,0,0,1,2.33,1.49,7.72,7.72,0,0,1,1.07,1.29,6.6,6.6,0,0,1,.45.78,2.16,2.16,0,0,1,.27,1,1,1,0,0,1-.17.57.76.76,0,0,1-.48.3,3.31,3.31,0,0,1-.9,0,5.54,5.54,0,0,1-1.55-.51,6.25,6.25,0,0,1-2.16-1.76,5.65,5.65,0,0,1-.92-1.69,1.66,1.66,0,0,1-.16-.69,10.45,10.45,0,0,0,1.31,2.16,6.13,6.13,0,0,0,2.09,1.6,5.21,5.21,0,0,0,1.45.44,2.86,2.86,0,0,0,.76,0c.2,0,.3-.19.31-.44a3.45,3.45,0,0,0-.64-1.5,7.24,7.24,0,0,0-1-1.23,6.88,6.88,0,0,0-2.16-1.5,2,2,0,0,0-1.66-.08A2.87,2.87,0,0,0,221.54,238.28Z" style="fill: rgb(38, 50, 56); transform-origin: 224.745px 240.328px;" id="elqr0x2oz1s4k" class="animable"></path><path d="M226.27,241.07a6.69,6.69,0,0,1-2.45-1.24,7.12,7.12,0,0,1-2.11-1.82,11.26,11.26,0,0,1,2.34,1.44A11.47,11.47,0,0,1,226.27,241.07Z" style="fill: rgb(38, 50, 56); transform-origin: 223.99px 239.54px;" id="el4dkbb354uxf" class="animable"></path><path d="M218.47,247.45l.14.25.43.79c.41.75,1,1.75,1.61,3,1.41,2.65,3.36,6.29,5.61,10.52l.11.21h-.24l-8.21-.38-8.3-.39h-.24l.13-.2,6.45-10,1.85-2.83c.19-.29.35-.54.49-.74a1.44,1.44,0,0,1,.17-.24l-.17.28-.49.79-1.81,2.9-6.26,9.94-.11-.2,8.3.37,8.22.4-.13.19c-2.18-4.21-4.06-7.84-5.42-10.49l-1.57-3c-.16-.33-.3-.6-.42-.83Z" style="fill: rgb(38, 50, 56); transform-origin: 217.875px 254.83px;" id="elab3otz2rl0s" class="animable"></path><path d="M223.38,257.24s-.43-.52-1.28-1.18a6.95,6.95,0,0,0-7.84-.51c-.93.54-1.39,1-1.43,1a1.53,1.53,0,0,1,.3-.37,6.42,6.42,0,0,1,1-.81,7,7,0,0,1,4.13-1.07,7,7,0,0,1,3.95,1.6,5.71,5.71,0,0,1,.9.94C223.31,257.09,223.4,257.23,223.38,257.24Z" style="fill: rgb(38, 50, 56); transform-origin: 218.106px 255.764px;" id="ellmaft72a1dk" class="animable"></path><path d="M223.38,257.24s0,.18-.24.44a4.77,4.77,0,0,1-2.81,1.77,8.89,8.89,0,0,1-2.44.33,5.93,5.93,0,0,1-4.1-1.63,4.41,4.41,0,0,1-.81-1.08,1.34,1.34,0,0,1-.18-.47,8.1,8.1,0,0,0,1.13,1.41,6.06,6.06,0,0,0,4,1.48,8.85,8.85,0,0,0,2.37-.29,5.39,5.39,0,0,0,1.79-.74A7.48,7.48,0,0,0,223.38,257.24Z" style="fill: rgb(38, 50, 56); transform-origin: 218.09px 258.19px;" id="elvccor7i75y" class="animable"></path><path d="M220.83,257.2s0-.24-.12-.64a2.54,2.54,0,0,0-1-1.4,2.79,2.79,0,0,0-2.41-.43,2.4,2.4,0,0,0-.21,4.6,2.76,2.76,0,0,0,2.44-.21,2.55,2.55,0,0,0,1.08-1.3c.14-.39.15-.63.18-.62s0,.06,0,.17a1.86,1.86,0,0,1-.08.49,2.59,2.59,0,0,1-1.08,1.44,3,3,0,0,1-2.65.27,2.65,2.65,0,0,1,.24-5.09,3,3,0,0,1,2.61.52,2.57,2.57,0,0,1,.94,1.53,2,2,0,0,1,0,.5C220.85,257.14,220.84,257.2,220.83,257.2Z" style="fill: rgb(38, 50, 56); transform-origin: 218.007px 257.069px;" id="elsbntkv4no2" class="animable"></path><path d="M219.47,257.06a1.66,1.66,0,0,0-.58-1,1.34,1.34,0,0,0-1.16-.2,1.14,1.14,0,0,0-.11,2.19,1.33,1.33,0,0,0,1.18-.08,1.65,1.65,0,0,0,.67-.93.56.56,0,0,1,0,.34,1.3,1.3,0,0,1-.55.76,1.51,1.51,0,0,1-1.38.16,1.4,1.4,0,0,1,.12-2.69,1.53,1.53,0,0,1,1.37.28,1.36,1.36,0,0,1,.47.81A.58.58,0,0,1,219.47,257.06Z" style="fill: rgb(38, 50, 56); transform-origin: 218.05px 256.976px;" id="eldbz2ukxplwa" class="animable"></path><path d="M218,253.85a3,3,0,0,1-.09-1.29,3.11,3.11,0,0,1,.21-1.29,6,6,0,0,1-.12,2.58Z" style="fill: rgb(38, 50, 56); transform-origin: 218.042px 252.56px;" id="elp1i16fwmcuc" class="animable"></path><path d="M220.12,252.47c.07,0,0,.36-.11.75s-.3.68-.38.65,0-.36.11-.75S220,252.44,220.12,252.47Z" style="fill: rgb(38, 50, 56); transform-origin: 219.873px 253.17px;" id="elug4e2n9em8k" class="animable"></path><path d="M216.43,253.61c-.08,0-.22-.26-.32-.63s-.11-.69,0-.71.22.26.31.63S216.51,253.59,216.43,253.61Z" style="fill: rgb(38, 50, 56); transform-origin: 216.26px 252.939px;" id="el4drep2anlqw" class="animable"></path><path d="M213.59,261.46a6.12,6.12,0,0,1-1.14-1.52,6.21,6.21,0,0,1-.9-1.68,6.32,6.32,0,0,1,1.14,1.52A6.78,6.78,0,0,1,213.59,261.46Z" style="fill: rgb(38, 50, 56); transform-origin: 212.57px 259.86px;" id="el34dcmarydno" class="animable"></path><path d="M224.83,259.06a6.66,6.66,0,0,1-2.42,2.63,7.55,7.55,0,0,1,1.17-1.35A8.22,8.22,0,0,1,224.83,259.06Z" style="fill: rgb(38, 50, 56); transform-origin: 223.62px 260.375px;" id="elyvf5vtmjxui" class="animable"></path><path d="M219.71,250a3.3,3.3,0,0,1-1.39,0,3.22,3.22,0,0,1-1.35-.28,3.47,3.47,0,0,1,1.38,0A3.62,3.62,0,0,1,219.71,250Z" style="fill: rgb(38, 50, 56); transform-origin: 218.34px 249.862px;" id="elh31xre6kvut" class="animable"></path><path d="M223.16,256.34a8.52,8.52,0,0,0,.49-1.12,4.68,4.68,0,0,0-.2-3.27h.18a1.63,1.63,0,0,1-1.2,1.16l-.24.06.12-.22a3.8,3.8,0,0,0-.7-4.47l.2,0c-.3.44-.63.92-1,1.4l-.25.37v-.45a5.69,5.69,0,0,0-2-4.26,5.37,5.37,0,0,0-2-1.13l.18-.15a11.71,11.71,0,0,1-.59,5.11l-.12.35-.12-.35a1.69,1.69,0,0,0-1-1l.15-.17a2.21,2.21,0,0,1-.07,1.95,5,5,0,0,1-1,1.41,5.52,5.52,0,0,0-1.65,2.19,2,2,0,0,0,.2,1.69,1.63,1.63,0,0,0,.46.42.89.89,0,0,1-.52-.38,2.05,2.05,0,0,1-.28-1.77,5.58,5.58,0,0,1,1.64-2.29,4.91,4.91,0,0,0,1-1.36,2,2,0,0,0,.06-1.75l-.14-.27.29.1a1.84,1.84,0,0,1,1.14,1.12H216a11.81,11.81,0,0,0,.55-5l0-.22.2.06a5.8,5.8,0,0,1,2.12,1.19,6,6,0,0,1,2.05,4.49l-.25-.09c.34-.48.67-.95,1-1.4l.09-.12.12.1a4,4,0,0,1,.7,4.78l-.12-.16a1.44,1.44,0,0,0,1.06-1l.07-.27.11.25a4.63,4.63,0,0,1,.13,3.38A3.42,3.42,0,0,1,223.16,256.34Z" style="fill: rgb(38, 50, 56); transform-origin: 218.1px 250.19px;" id="elgkq71szva7n" class="animable"></path><path d="M220.43,244.12s.08-.26.45-.28a.7.7,0,0,1,.56.27.65.65,0,0,1,0,.77.62.62,0,0,1-1.14-.21c-.09-.36.13-.54.14-.51s-.06.2,0,.44a.41.41,0,1,0,.42-.55C220.6,244,220.47,244.15,220.43,244.12Z" style="fill: rgb(38, 50, 56); transform-origin: 220.922px 244.509px;" id="elvl40xlgem08" class="animable"></path><path d="M228.24,244.08s0,.31,0,.92.05,1.53.09,2.7c.07,2.39.16,5.87.28,10.31.22,8.92.53,21.71.91,37.24l-.08-.16,12.93,10.4.38.3-.48.1-3,.61a13.72,13.72,0,0,1-1.54.26,4.25,4.25,0,0,1-1.62-.16,8.17,8.17,0,0,1-2.72-1.7c-.4-.34-.79-.7-1.2-1a1.76,1.76,0,0,0-1.27-.46.91.91,0,0,0-.51.31,1.94,1.94,0,0,0-.22.68,8.92,8.92,0,0,0-.07,1.56c0,1.07.18,2.15.33,3.24.31,2.17.73,4.35,1.17,6.56.21,1.11.42,2.23.64,3.35.1.56.2,1.13.28,1.7a4.88,4.88,0,0,1,0,1.79,2.52,2.52,0,0,1-.31.91,1.07,1.07,0,0,1-.92.5c-.32,0-.59,0-.86,0a1.21,1.21,0,0,1-.23,0,.5.5,0,0,1-.38-.17,1.64,1.64,0,0,1-.27-.44,21.39,21.39,0,0,1-1-3.43c-.51-2.3-.93-4.64-1.54-6.93a13.17,13.17,0,0,0-.54-1.68,2.36,2.36,0,0,0-.39-.69c-.09-.09-.09-.05-.09-.06s-.07.12-.09.23a13.28,13.28,0,0,0,.25,3.51c.32,2,.74,4.06,1.11,6.08a18.24,18.24,0,0,1,.41,3.1,2.64,2.64,0,0,1-.63,1.53,2.51,2.51,0,0,1-1.47.79h0l-2.37.08h-.15A1,1,0,0,1,223,326a1.48,1.48,0,0,1-.29-.24,3.46,3.46,0,0,1-.39-.51,9.94,9.94,0,0,1-.56-1.07c-.67-1.43-1.2-2.9-1.72-4.35-1-2.91-1.9-5.8-2.72-8.65l.48-.07c0,3.28,0,6.49-.23,9.67a10.35,10.35,0,0,1-.15,1.2,1.42,1.42,0,0,1-.14.36,1.86,1.86,0,0,1-.23.26.87.87,0,0,1-.74.21,4.3,4.3,0,0,1-.6-.17l-.27-.1-.14,0-.07,0h0l-.1-.07a.5.5,0,0,1-.14-.23l0-.16-.07-.3-.12-.58c-.27-1.53-.48-3.05-.69-4.55-.8-6-1.46-11.78-2.09-17.23-1.24-10.91-2.28-20.57-3.13-28.61s-1.49-14.44-2-18.86c-.21-2.19-.38-3.89-.49-5.05-.05-.57-.09-1-.12-1.31s0-.45,0-.45,0,.15.07.44.09.74.16,1.31c.13,1.16.32,2.85.57,5l2.09,18.84c.91,8,2,17.7,3.24,28.6.64,5.45,1.32,11.21,2.13,17.22.21,1.49.42,3,.69,4.53l.12.56.06.27,0,.12s.07.1,0,0l.48.16a3.56,3.56,0,0,0,.52.15.38.38,0,0,0,.36-.1,1,1,0,0,0,.15-.18c0-.07,0-.12.07-.18a10.15,10.15,0,0,0,.14-1.14c.2-3.13.2-6.36.21-9.63v-1.7l.48,1.63c.82,2.84,1.71,5.73,2.72,8.63.52,1.44,1,2.9,1.7,4.3.17.34.34.69.54,1s.42.67.64.58l2.37-.09h0a2.14,2.14,0,0,0,1.15-.64,2,2,0,0,0,.5-1.23,18.78,18.78,0,0,0-.39-3c-.37-2-.8-4-1.12-6.09-.1-.6-.18-1.21-.24-1.82a7,7,0,0,1,0-1.88.82.82,0,0,1,.32-.55.58.58,0,0,1,.71.13,2.74,2.74,0,0,1,.51.85,16.15,16.15,0,0,1,.56,1.75c.61,2.33,1,4.66,1.54,6.95a21.4,21.4,0,0,0,.92,3.33,1.31,1.31,0,0,0,.18.3l0,0s0,0,0,.07v0s0-.17,0-.09h.09l.12,0c.31,0,.61,0,.88,0a.55.55,0,0,0,.53-.27,2.16,2.16,0,0,0,.24-.73,4.74,4.74,0,0,0-.05-1.63c-.08-.56-.18-1.12-.28-1.68-.21-1.12-.43-2.23-.64-3.34-.43-2.22-.85-4.41-1.16-6.59-.15-1.1-.29-2.19-.33-3.29a9.44,9.44,0,0,1,.08-1.67,2.45,2.45,0,0,1,.29-.85,1.25,1.25,0,0,1,.81-.51,2.13,2.13,0,0,1,1.65.54c.44.33.83.69,1.23,1a7.63,7.63,0,0,0,2.55,1.61,5.34,5.34,0,0,0,2.93-.11l3-.6-.1.4-12.9-10.42-.07-.07v-.09c-.3-15.53-.55-28.32-.72-37.25-.07-4.44-.13-7.92-.17-10.31l0-2.7C228.23,244.39,228.24,244.08,228.24,244.08Z" style="fill: rgb(235, 153, 110); transform-origin: 224.508px 285.04px;" id="el2euxv9fxuy1" class="animable"></path><path d="M345.87,321l1.21,1a1.68,1.68,0,0,1,.17,2.44,44.91,44.91,0,0,1-12,9.15c-7.7,3.81-153.34,77.27-153.34,77.27s-15.83,9-22.66,8.63c-3.62-.18-6.08-.37-7.59-.5a3.14,3.14,0,0,1-2.65-2h0a3.14,3.14,0,0,1,3-4.26c4.72.1,11.75-.06,14.88-1.62,3.72-1.84,151.82-75.75,164.22-81.86a18,18,0,0,0,1.66-.93A62.08,62.08,0,0,0,342,321.2,2.88,2.88,0,0,1,345.87,321Z" style="fill: rgb(38, 50, 56); transform-origin: 248.25px 369.925px;" id="ellq9sybnh5zh" class="animable"></path><path d="M321.76,340.35c-.05,0,3,6.27,3,6.27l5.32-2.27-3-6.67Z" style="fill: rgb(69, 90, 100); transform-origin: 325.92px 342.15px;" id="el46ozlag8j7w" class="animable"></path><path d="M321.87,349.4a6.5,6.5,0,1,0,2.94-8.72A6.49,6.49,0,0,0,321.87,349.4Z" style="fill: rgb(38, 50, 56); transform-origin: 327.689px 346.507px;" id="elg7byv4j603n" class="animable"></path><path d="M190.51,406.42s3,6.27,3,6.27l5.33-2.28-3-6.66Z" style="fill: rgb(69, 90, 100); transform-origin: 194.675px 408.22px;" id="elhieub0it9r" class="animable"></path><path d="M190.61,415.47a6.5,6.5,0,1,0,2.94-8.72A6.5,6.5,0,0,0,190.61,415.47Z" style="fill: rgb(38, 50, 56); transform-origin: 196.431px 412.577px;" id="eli4i83k6x3k" class="animable"></path><path d="M193.51,414a3.28,3.28,0,1,0,1.48-4.39A3.28,3.28,0,0,0,193.51,414Z" style="fill: rgb(69, 90, 100); transform-origin: 196.451px 412.547px;" id="elt5x6jg4whd" class="animable"></path><path d="M324.76,348a3.28,3.28,0,1,0,1.48-4.39A3.28,3.28,0,0,0,324.76,348Z" style="fill: rgb(69, 90, 100); transform-origin: 327.701px 346.547px;" id="elc085thiuw3m" class="animable"></path><path d="M345.87,321s-.12.15-.37.43l-1.13,1.23c-1,1.06-2.53,2.61-4.55,4.52a30.4,30.4,0,0,1-3.55,3,35.17,35.17,0,0,1-4.83,2.69l-12,6L249.9,373.71l-69.62,34.68-6.36,3.16a60.22,60.22,0,0,1-5.76,2.66,31.47,31.47,0,0,1-9.95,1.92,29.79,29.79,0,0,1-6.39-.52,18.77,18.77,0,0,1-2.18-.51s.19,0,.56.1.91.2,1.63.31a31.91,31.91,0,0,0,6.37.42,31.42,31.42,0,0,0,9.86-2,62.54,62.54,0,0,0,5.71-2.69l6.34-3.19,69.56-34.81,69.61-34.68,12-6a36.44,36.44,0,0,0,4.81-2.64,28.3,28.3,0,0,0,3.55-2.94c2.05-1.88,3.58-3.4,4.61-4.44l1.17-1.19C345.72,321.14,345.87,321,345.87,321Z" style="fill: rgb(69, 90, 100); transform-origin: 247.755px 368.57px;" id="elm3fyxes7ysj" class="animable"></path></g><g id="freepik--Chart--inject-10" class="animable" style="transform-origin: 392.51px 330.436px;"><rect x="297.92" y="387.8" width="39.06" height="75.21" style="fill: rgb(0, 255, 136); transform-origin: 317.45px 425.405px;" id="elvn2w9b7qzb" class="animable"></rect><g id="el7a7e4vfz97u"><rect x="297.92" y="387.8" width="39.06" height="75.21" style="opacity: 0.5; transform-origin: 317.45px 425.405px;" class="animable"></rect></g><rect x="281.29" y="387.8" width="34.23" height="75.21" style="fill: rgb(0, 255, 136); transform-origin: 298.405px 425.405px;" id="el0tb4t5ywxvwa" class="animable"></rect><path d="M336.93,444.84c.09.1-4.59,4.3-10.45,9.37s-10.69,9.09-10.78,9,4.59-4.3,10.45-9.37S336.84,444.73,336.93,444.84Z" style="fill: rgb(0, 255, 136); transform-origin: 326.315px 454.025px;" id="elvtxasox77dm" class="animable"></path><path d="M336.75,426.51c.09.1-4.59,4.3-10.45,9.36s-10.69,9.1-10.78,9,4.59-4.3,10.45-9.37S336.66,426.4,336.75,426.51Z" style="fill: rgb(0, 255, 136); transform-origin: 326.135px 435.69px;" id="eld7nmfbtg4hv" class="animable"></path><path d="M336.57,408.17c.09.11-4.58,4.3-10.45,9.37s-10.68,9.1-10.78,9,4.59-4.3,10.45-9.37S336.48,408.07,336.57,408.17Z" style="fill: rgb(0, 255, 136); transform-origin: 325.955px 417.355px;" id="eltct8gj8kbcs" class="animable"></path><path d="M337,389.22c.09.11-4.59,4.31-10.47,9.39s-10.71,9.12-10.8,9,4.6-4.31,10.47-9.39S336.88,389.11,337,389.22Z" style="fill: rgb(0, 255, 136); transform-origin: 326.365px 398.415px;" id="eldkzvkdbuqdq" class="animable"></path><rect x="367.72" y="338.89" width="39.06" height="124.12" style="fill: rgb(0, 255, 136); transform-origin: 387.25px 400.95px;" id="el4ab8hy0lejn" class="animable"></rect><g id="eltmcy9gt95z"><rect x="367.72" y="338.89" width="39.06" height="124.12" style="opacity: 0.5; transform-origin: 387.25px 400.95px;" class="animable"></rect></g><rect x="351.1" y="338.89" width="33.49" height="124.12" style="fill: rgb(0, 255, 136); transform-origin: 367.845px 400.95px;" id="el7bshdvib2ia" class="animable"></rect><path d="M406.69,444.84c.09.1-4.59,4.3-10.45,9.37s-10.69,9.09-10.78,9,4.59-4.3,10.45-9.37S406.6,444.73,406.69,444.84Z" style="fill: rgb(0, 255, 136); transform-origin: 396.075px 454.025px;" id="elaqagzhqv9pc" class="animable"></path><path d="M406.51,426.51c.1.1-4.58,4.3-10.44,9.36s-10.69,9.1-10.78,9,4.58-4.3,10.44-9.37S406.42,426.4,406.51,426.51Z" style="fill: rgb(0, 255, 136); transform-origin: 395.9px 435.69px;" id="elimh591jycy" class="animable"></path><path d="M406.34,408.17c.09.11-4.59,4.3-10.45,9.37s-10.69,9.1-10.78,9,4.58-4.3,10.45-9.37S406.25,408.07,406.34,408.17Z" style="fill: rgb(0, 255, 136); transform-origin: 395.725px 417.355px;" id="el41xuow6vppb" class="animable"></path><path d="M406.74,389.22c.09.11-4.6,4.31-10.47,9.39s-10.72,9.12-10.81,9,4.6-4.31,10.47-9.39S406.64,389.11,406.74,389.22Z" style="fill: rgb(0, 255, 136); transform-origin: 396.1px 398.415px;" id="elan1yyiutep7" class="animable"></path><path d="M406.74,367.23c.09.1-4.6,4.31-10.47,9.39s-10.72,9.12-10.81,9,4.6-4.31,10.47-9.39S406.64,367.12,406.74,367.23Z" style="fill: rgb(0, 255, 136); transform-origin: 396.1px 376.425px;" id="els040sbbp5u" class="animable"></path><path d="M404.25,347.39c.09.1-4,3.83-9.23,8.31s-9.47,8-9.56,7.94,4-3.83,9.23-8.32S404.16,347.28,404.25,347.39Z" style="fill: rgb(0, 255, 136); transform-origin: 394.855px 355.514px;" id="el4lshvkbmzif" class="animable"></path><rect x="446.58" y="294.18" width="39.06" height="168.83" style="fill: rgb(0, 255, 136); transform-origin: 466.11px 378.595px;" id="elj2w94p25jj" class="animable"></rect><g id="el5v2afg3hes4"><rect x="446.58" y="294.18" width="39.06" height="168.83" style="opacity: 0.5; transform-origin: 466.11px 378.595px;" class="animable"></rect></g><rect x="429.95" y="294.18" width="33.49" height="168.83" style="fill: rgb(0, 255, 136); transform-origin: 446.695px 378.595px;" id="eluj2nn1wv9no" class="animable"></rect><path d="M485.54,444.84c.1.1-4.58,4.3-10.45,9.37s-10.68,9.09-10.78,9,4.59-4.3,10.45-9.37S485.45,444.73,485.54,444.84Z" style="fill: rgb(0, 255, 136); transform-origin: 474.925px 454.025px;" id="el6tcldvltutq" class="animable"></path><path d="M485.37,426.51c.09.1-4.59,4.3-10.45,9.36s-10.69,9.1-10.78,9,4.58-4.3,10.45-9.37S485.27,426.4,485.37,426.51Z" style="fill: rgb(0, 255, 136); transform-origin: 474.755px 435.69px;" id="elnxie5b6nu6" class="animable"></path><path d="M485.19,408.17c.09.11-4.59,4.3-10.45,9.37s-10.69,9.1-10.78,9,4.59-4.3,10.45-9.37S485.1,408.07,485.19,408.17Z" style="fill: rgb(0, 255, 136); transform-origin: 474.575px 417.355px;" id="elvk8g5twchf9" class="animable"></path><path d="M485.59,389.22c.09.11-4.6,4.31-10.47,9.39s-10.71,9.12-10.81,9,4.6-4.31,10.48-9.39S485.5,389.11,485.59,389.22Z" style="fill: rgb(0, 255, 136); transform-origin: 474.95px 398.415px;" id="elmxhkmdrep3h" class="animable"></path><path d="M485.59,367.23c.09.1-4.6,4.31-10.47,9.39s-10.71,9.12-10.81,9,4.6-4.31,10.48-9.39S485.5,367.12,485.59,367.23Z" style="fill: rgb(0, 255, 136); transform-origin: 474.95px 376.425px;" id="el4m5dccci7x7" class="animable"></path><path d="M485.59,347.23c.09.11-4.6,4.31-10.47,9.4s-10.71,9.11-10.81,9,4.6-4.31,10.48-9.4S485.5,347.13,485.59,347.23Z" style="fill: rgb(0, 255, 136); transform-origin: 474.95px 356.43px;" id="elrrt4ay8v6g" class="animable"></path><path d="M485.59,327.24c.09.11-4.6,4.31-10.47,9.39s-10.71,9.12-10.81,9,4.6-4.31,10.48-9.39S485.5,327.13,485.59,327.24Z" style="fill: rgb(0, 255, 136); transform-origin: 474.95px 336.435px;" id="elxhrb3ma5w1s" class="animable"></path><path d="M485.59,307.25c.09.1-4.6,4.31-10.47,9.39s-10.71,9.12-10.81,9,4.6-4.31,10.48-9.39S485.5,307.14,485.59,307.25Z" style="fill: rgb(0, 255, 136); transform-origin: 474.95px 316.445px;" id="el8oawbi8jptn" class="animable"></path><path d="M477.58,294.18a153.06,153.06,0,0,1-13.27,11.48,76.7,76.7,0,0,1,6.47-5.93A75.11,75.11,0,0,1,477.58,294.18Z" style="fill: rgb(0, 255, 136); transform-origin: 470.945px 299.92px;" id="elhof005ondc" class="animable"></path><rect x="525.43" y="238.03" width="39.06" height="224.98" style="fill: rgb(0, 255, 136); transform-origin: 544.96px 350.52px;" id="ellxx37w1oas" class="animable"></rect><g id="elk6rdm1v4jsi"><rect x="525.43" y="238.03" width="39.06" height="224.98" style="opacity: 0.5; transform-origin: 544.96px 350.52px;" class="animable"></rect></g><rect x="508.8" y="238.03" width="33.49" height="224.98" style="fill: rgb(0, 255, 136); transform-origin: 525.545px 350.52px;" id="elr6rj1whyu1" class="animable"></rect><path d="M564.4,444.84c.09.1-4.59,4.3-10.45,9.37s-10.69,9.09-10.78,9,4.58-4.3,10.45-9.37S564.3,444.73,564.4,444.84Z" style="fill: rgb(0, 255, 136); transform-origin: 553.785px 454.025px;" id="el62tkc4iy06x" class="animable"></path><path d="M564.22,426.51c.09.1-4.59,4.3-10.45,9.36s-10.69,9.1-10.78,9,4.58-4.3,10.45-9.37S564.13,426.4,564.22,426.51Z" style="fill: rgb(0, 255, 136); transform-origin: 553.605px 435.69px;" id="el207d4drd4n3" class="animable"></path><path d="M564,408.17c.09.11-4.59,4.3-10.45,9.37s-10.69,9.1-10.78,9,4.59-4.3,10.45-9.37S564,408.07,564,408.17Z" style="fill: rgb(0, 255, 136); transform-origin: 553.385px 417.355px;" id="elcuufgairz45" class="animable"></path><path d="M564.44,389.22c.09.11-4.6,4.31-10.47,9.39s-10.71,9.12-10.8,9,4.59-4.31,10.47-9.39S564.35,389.11,564.44,389.22Z" style="fill: rgb(0, 255, 136); transform-origin: 553.805px 398.415px;" id="ellfmh2cvcs68" class="animable"></path><path d="M564.44,367.23c.09.1-4.6,4.31-10.47,9.39s-10.71,9.12-10.8,9,4.59-4.31,10.47-9.39S564.35,367.12,564.44,367.23Z" style="fill: rgb(0, 255, 136); transform-origin: 553.805px 376.425px;" id="elus1tote6s" class="animable"></path><path d="M563.83,345.51c.09.1-4.46,4.25-10.17,9.25s-10.4,9-10.49,8.88,4.45-4.25,10.16-9.26S563.74,345.4,563.83,345.51Z" style="fill: rgb(0, 255, 136); transform-origin: 553.5px 354.575px;" id="el7hqakdvebww" class="animable"></path><path d="M563.83,323.51c.09.11-4.46,4.25-10.17,9.26s-10.4,9-10.49,8.87,4.45-4.25,10.16-9.25S563.74,323.41,563.83,323.51Z" style="fill: rgb(0, 255, 136); transform-origin: 553.5px 332.576px;" id="eliep0kcui8f" class="animable"></path><path d="M563.83,301.52c.09.1-4.46,4.24-10.17,9.25s-10.4,9-10.49,8.88,4.45-4.25,10.16-9.26S563.74,301.41,563.83,301.52Z" style="fill: rgb(0, 255, 136); transform-origin: 553.5px 310.585px;" id="elgk75tzaxu25" class="animable"></path><path d="M563.83,279.52c.09.11-4.46,4.25-10.17,9.25s-10.4,9-10.49,8.88,4.45-4.25,10.16-9.26S563.74,279.42,563.83,279.52Z" style="fill: rgb(0, 255, 136); transform-origin: 553.5px 288.585px;" id="elg6k7ne9qesg" class="animable"></path><path d="M563.83,257.52c.09.11-4.46,4.25-10.17,9.26s-10.4,9-10.49,8.87,4.45-4.24,10.16-9.25S563.74,257.42,563.83,257.52Z" style="fill: rgb(0, 255, 136); transform-origin: 553.5px 266.586px;" id="elstzt0x0xp" class="animable"></path><path d="M561.15,238.21c.09.1-3.86,3.65-8.83,7.91s-9.06,7.64-9.15,7.54S547,250,552,245.74,561.06,238.1,561.15,238.21Z" style="fill: rgb(0, 255, 136); transform-origin: 552.16px 245.935px;" id="els0f8c2li1y" class="animable"></path><rect x="604.28" y="197.66" width="39.06" height="265.35" style="fill: rgb(0, 255, 136); transform-origin: 623.81px 330.335px;" id="eltvbelevcwoj" class="animable"></rect><g id="elyzh4e8b6vge"><rect x="604.28" y="197.66" width="39.06" height="265.35" style="opacity: 0.5; transform-origin: 623.81px 330.335px;" class="animable"></rect></g><rect x="587.65" y="197.66" width="33.49" height="265.35" style="fill: rgb(0, 255, 136); transform-origin: 604.395px 330.335px;" id="eleflkrr5vngb" class="animable"></rect><path d="M643.25,444.84c.09.1-4.59,4.3-10.45,9.37s-10.69,9.09-10.78,9,4.58-4.3,10.45-9.37S643.16,444.73,643.25,444.84Z" style="fill: rgb(0, 255, 136); transform-origin: 632.635px 454.025px;" id="eld5adyzdipvq" class="animable"></path><path d="M643.07,426.51c.09.1-4.59,4.3-10.45,9.36s-10.69,9.1-10.78,9,4.59-4.3,10.45-9.37S643,426.4,643.07,426.51Z" style="fill: rgb(0, 255, 136); transform-origin: 632.455px 435.69px;" id="elwd98v1od639" class="animable"></path><path d="M642.89,408.17c.09.11-4.59,4.3-10.45,9.37s-10.69,9.1-10.78,9,4.59-4.3,10.45-9.37S642.8,408.07,642.89,408.17Z" style="fill: rgb(0, 255, 136); transform-origin: 632.275px 417.355px;" id="elv4pg1r58qc" class="animable"></path><path d="M643.29,389.22c.09.11-4.6,4.31-10.47,9.39s-10.71,9.12-10.8,9,4.59-4.31,10.47-9.39S643.2,389.11,643.29,389.22Z" style="fill: rgb(0, 255, 136); transform-origin: 632.655px 398.415px;" id="eltlgbzhtayh" class="animable"></path><path d="M643.29,367.23c.09.1-4.6,4.31-10.47,9.39s-10.71,9.12-10.8,9,4.59-4.31,10.47-9.39S643.2,367.12,643.29,367.23Z" style="fill: rgb(0, 255, 136); transform-origin: 632.655px 376.425px;" id="ellkahuf2sme9" class="animable"></path><path d="M642.83,345.36c.09.11-4.49,4.28-10.24,9.33s-10.48,9.05-10.57,8.95,4.49-4.28,10.24-9.33S642.73,345.26,642.83,345.36Z" style="fill: rgb(0, 255, 136); transform-origin: 632.425px 354.5px;" id="elhoxe2347dvl" class="animable"></path><path d="M642.83,323c.09.1-4.49,4.28-10.24,9.32s-10.48,9.06-10.57,8.95,4.49-4.28,10.24-9.33S642.73,322.86,642.83,323Z" style="fill: rgb(0, 255, 136); transform-origin: 632.425px 332.134px;" id="elx0xh3qhfchi" class="animable"></path><path d="M642.83,300.57c.09.11-4.49,4.28-10.24,9.33s-10.48,9.05-10.57,9,4.49-4.28,10.24-9.33S642.73,300.47,642.83,300.57Z" style="fill: rgb(0, 255, 136); transform-origin: 632.425px 309.734px;" id="eli511kidt9k" class="animable"></path><path d="M642.83,278.18c.09.1-4.49,4.28-10.24,9.33s-10.48,9.05-10.57,8.94,4.49-4.28,10.24-9.32S642.73,278.07,642.83,278.18Z" style="fill: rgb(0, 255, 136); transform-origin: 632.425px 287.315px;" id="elet1prukb1n" class="animable"></path><path d="M642.83,255.78c.09.11-4.49,4.29-10.24,9.33s-10.48,9.06-10.57,8.95,4.49-4.28,10.24-9.33S642.73,255.68,642.83,255.78Z" style="fill: rgb(0, 255, 136); transform-origin: 632.425px 264.92px;" id="elfvywdtbbibm" class="animable"></path><path d="M642.83,233.39c.09.11-4.49,4.28-10.24,9.33s-10.48,9.05-10.57,8.95,4.49-4.28,10.24-9.33S642.73,233.29,642.83,233.39Z" style="fill: rgb(0, 255, 136); transform-origin: 632.425px 242.53px;" id="el7nzsgr6hs3t" class="animable"></path><path d="M642.83,211c.09.1-4.49,4.28-10.24,9.32s-10.48,9.06-10.57,9,4.49-4.28,10.24-9.33S642.73,210.89,642.83,211Z" style="fill: rgb(0, 255, 136); transform-origin: 632.425px 220.159px;" id="elod8ph1632s" class="animable"></path><path d="M633.14,198.29a48.29,48.29,0,0,1-5.4,4.49,49.61,49.61,0,0,1-5.72,4.1,48.55,48.55,0,0,1,5.41-4.5A49.63,49.63,0,0,1,633.14,198.29Z" style="fill: rgb(0, 255, 136); transform-origin: 627.58px 202.585px;" id="elh6x6o6nqpus" class="animable"></path><rect x="228.11" y="427.55" width="39.06" height="35.46" style="fill: rgb(0, 255, 136); transform-origin: 247.64px 445.28px;" id="elsrvjshr7q79" class="animable"></rect><g id="eldpszz78jgxl"><rect x="228.11" y="427.55" width="39.06" height="35.46" style="opacity: 0.5; transform-origin: 247.64px 445.28px;" class="animable"></rect></g><rect x="211.48" y="427.55" width="34.45" height="35.46" style="fill: rgb(0, 255, 136); transform-origin: 228.705px 445.28px;" id="eld98e6b94l2s" class="animable"></rect><path d="M267.17,444.65c.09.11-4.59,4.3-10.45,9.37s-10.69,9.1-10.78,9,4.58-4.3,10.45-9.37S267.07,444.55,267.17,444.65Z" style="fill: rgb(0, 255, 136); transform-origin: 256.555px 453.835px;" id="eluu9e2tjh6le" class="animable"></path><path d="M267.17,427.77c.09.11-4.59,4.31-10.45,9.37s-10.69,9.1-10.78,9,4.58-4.3,10.45-9.37S267.07,427.67,267.17,427.77Z" style="fill: rgb(0, 255, 136); transform-origin: 256.555px 436.955px;" id="elvqf16kyf5i" class="animable"></path><rect x="158.3" y="445.02" width="39.06" height="17.99" style="fill: rgb(0, 255, 136); transform-origin: 177.83px 454.015px;" id="elwlsmqqnqq1e" class="animable"></rect><g id="el6r1n3xjsymk"><rect x="158.3" y="445.02" width="39.06" height="17.99" style="opacity: 0.5; transform-origin: 177.83px 454.015px;" class="animable"></rect></g><rect x="141.68" y="445.02" width="34.18" height="17.99" style="fill: rgb(0, 255, 136); transform-origin: 158.77px 454.015px;" id="elew9yn0sr9g4" class="animable"></rect><path d="M197.08,445.28c.09.11-4.65,4.16-10.58,9.06s-10.82,8.78-10.91,8.67,4.65-4.16,10.59-9.06S197,445.17,197.08,445.28Z" style="fill: rgb(0, 255, 136); transform-origin: 186.335px 454.145px;" id="eln44bqci8bx" class="animable"></path></g><g id="freepik--Floor--inject-10" class="animable" style="transform-origin: 375px 463.195px;"><path d="M707.34,463.19c0,.14-148.8.26-332.32.26s-332.36-.12-332.36-.26,148.77-.25,332.36-.25S707.34,463.06,707.34,463.19Z" style="fill: rgb(38, 50, 56); transform-origin: 375px 463.195px;" id="elipn1ja36si" class="animable"></path></g><g id="freepik--Plant--inject-10" class="animable" style="transform-origin: 90.8322px 432.645px;"><path d="M84.69,402.1a11.61,11.61,0,0,1,7.16,5.57,20.41,20.41,0,0,1,2.49,8.9c.45,6-1.77,12.55-4.48,17.92-5.75-3.38-8.31-10.7-9.38-14.49-1.68-6-1.09-17.84,4.21-17.9" style="fill: rgb(0, 255, 136); transform-origin: 87.0213px 418.295px;" id="el4xm00rb1a58" class="animable"></path><path d="M97.44,443.09a9.87,9.87,0,0,1,1.39-9.82,13.12,13.12,0,0,1,9-4.76,5.51,5.51,0,0,1,4.52,1.08,4.22,4.22,0,0,1,.86,4.2,8.53,8.53,0,0,1-2.53,3.65c-3.78,3.5-8.07,6.19-13.19,5.65" style="fill: rgb(0, 255, 136); transform-origin: 105.077px 435.779px;" id="eltnbbtctaeif" class="animable"></path><path d="M94.5,462.29a7.67,7.67,0,0,1,0-1.24c0-.88,0-2,0-3.37a34.63,34.63,0,0,1,1.4-11.05,21.19,21.19,0,0,1,6-9.36,14.33,14.33,0,0,1,2.79-1.92,8.62,8.62,0,0,1,.84-.39c.19-.08.3-.12.3-.1A22.82,22.82,0,0,0,102,437.5a21.87,21.87,0,0,0-5.77,9.26,37.51,37.51,0,0,0-1.5,10.92c0,1.42-.08,2.58-.12,3.37A7,7,0,0,1,94.5,462.29Z" style="fill: rgb(38, 50, 56); transform-origin: 100.152px 448.572px;" id="el7c4n8mg6s8" class="animable"></path><path d="M85,411.17a2.51,2.51,0,0,1,.16.51c.09.39.22.88.37,1.5.32,1.3.76,3.19,1.28,5.53,1,4.67,2.39,11.15,3.71,18.34s2.38,13.72,3.07,18.46c.35,2.37.62,4.29.78,5.62.08.62.14,1.13.19,1.53a3.52,3.52,0,0,1,0,.53,2.19,2.19,0,0,1-.12-.52c-.07-.39-.16-.9-.26-1.52-.23-1.37-.54-3.27-.92-5.59-.77-4.73-1.87-11.25-3.2-18.44s-2.62-13.66-3.58-18.35c-.48-2.31-.86-4.19-1.14-5.55-.12-.63-.22-1.13-.3-1.52A2.14,2.14,0,0,1,85,411.17Z" style="fill: rgb(38, 50, 56); transform-origin: 89.7837px 437.18px;" id="elndh9v5sfcxi" class="animable"></path><path d="M89.56,448.28A23.08,23.08,0,0,0,74,434c-1.8-.48-4-.59-5.18.9s-.4,3.63.58,5.22a19.75,19.75,0,0,0,20.12,8.67" style="fill: rgb(0, 255, 136); transform-origin: 78.8928px 441.397px;" id="el86z7pjiw73r" class="animable"></path><path d="M75.88,439.41a5.47,5.47,0,0,1,1.13.26,11.34,11.34,0,0,1,1.31.4c.49.2,1.08.37,1.68.66a19,19,0,0,1,2,1A23.61,23.61,0,0,1,84.13,443a26.1,26.1,0,0,1,4.34,3.83,25.07,25.07,0,0,1,3.28,4.76,21.68,21.68,0,0,1,1,2.31,19,19,0,0,1,.71,2.08,18.11,18.11,0,0,1,.41,1.77,9.35,9.35,0,0,1,.22,1.35,6.59,6.59,0,0,1,.09,1.16c-.1,0-.24-1.65-1-4.19a20.6,20.6,0,0,0-.74-2,23.63,23.63,0,0,0-1.06-2.25,25.57,25.57,0,0,0-3.25-4.66,26.69,26.69,0,0,0-4.24-3.79A23.48,23.48,0,0,0,81.8,442c-.67-.41-1.33-.71-1.92-1C77.47,439.89,75.85,439.5,75.88,439.41Z" style="fill: rgb(38, 50, 56); transform-origin: 85.03px 449.835px;" id="elirwiluz495" class="animable"></path></g><defs>     <filter id="active" height="200%">         <feMorphology in="SourceAlpha" result="DILATED" operator="dilate" radius="2"></feMorphology>                <feFlood flood-color="#32DFEC" flood-opacity="1" result="PINK"></feFlood>        <feComposite in="PINK" in2="DILATED" operator="in" result="OUTLINE"></feComposite>        <feMerge>            <feMergeNode in="OUTLINE"></feMergeNode>            <feMergeNode in="SourceGraphic"></feMergeNode>        </feMerge>    </filter>    <filter id="hover" height="200%">        <feMorphology in="SourceAlpha" result="DILATED" operator="dilate" radius="2"></feMorphology>                <feFlood flood-color="#ff0000" flood-opacity="0.5" result="PINK"></feFlood>        <feComposite in="PINK" in2="DILATED" operator="in" result="OUTLINE"></feComposite>        <feMerge>            <feMergeNode in="OUTLINE"></feMergeNode>            <feMergeNode in="SourceGraphic"></feMergeNode>        </feMerge>            <feColorMatrix type="matrix" values="0   0   0   0   0                0   1   0   0   0                0   0   0   0   0                0   0   0   1   0 "></feColorMatrix>    </filter></defs></svg>